<?xml version="1.0" encoding="UTF-8" standalone="no"?>
<!-- Created with Inkscape (http://www.inkscape.org/) -->

<svg
   version="1.1"
   id="svg69"
   width="2666.6667"
   height="2666.6667"
   viewBox="0 0 2666.6667 2666.6667"
   sodipodi:docname="medal_layer2.svg"
   inkscape:version="1.1.2 (0a00cf5339, 2022-02-04)"
   xmlns:inkscape="http://www.inkscape.org/namespaces/inkscape"
   xmlns:sodipodi="http://sodipodi.sourceforge.net/DTD/sodipodi-0.dtd"
   xmlns="http://www.w3.org/2000/svg"
   xmlns:svg="http://www.w3.org/2000/svg">
  <defs
     id="defs73" />
  <sodipodi:namedview
     id="namedview71"
     pagecolor="#505050"
     bordercolor="#eeeeee"
     borderopacity="1"
     inkscape:pageshadow="0"
     inkscape:pageopacity="0"
     inkscape:pagecheckerboard="0"
     showgrid="false"
     inkscape:zoom="0.5088517"
     inkscape:cx="1493.5589"
     inkscape:cy="1256.7512"
     inkscape:window-width="3840"
     inkscape:window-height="2111"
     inkscape:window-x="0"
     inkscape:window-y="49"
     inkscape:window-maximized="1"
     inkscape:current-layer="g75" />
  <g
     inkscape:groupmode="layer"
     inkscape:label="Image"
     id="g75">
    <path
       style="fill:#000000;stroke-width:1.33333"
       d="m 1211.3334,2657.8265 c -119.1565,-11.4699 -234.23984,-37.8407 -344.00004,-78.8262 -154.926,-57.8506 -297.3973,-144.059 -423.3333,-256.1561 -22.3327,-19.8787 -80.9719,-78.5179 -100.8505,-100.8505 -51.779,-58.1714 -100.6765,-123.417 -139.8203,-186.5671 -28.1467,-45.4085 -59.4028,-103.0003 -58.1102,-107.0727 0.5741,-1.809 3.6678,-2.8894 13.0996,-4.5746 15.3207,-2.7375 19.6239,-3.6883 23.0147,-5.0848 6.0691,-2.4998 11.0298,-4.0506 17.3118,-5.4119 3.6548,-0.792 7.5548,-2.2185 8.6667,-3.1703 1.1118,-0.9516 5.575,-2.4182 9.9182,-3.2593 4.3432,-0.8409 8.8432,-2.3168 10,-3.2796 1.1568,-0.9628 5.4033,-2.5276 9.4366,-3.4773 4.0334,-0.9498 7.9334,-2.4351 8.6667,-3.3006 0.7333,-0.8656 3.8735,-2.3213 6.9782,-3.2348 3.1047,-0.9136 6.2759,-2.8398 7.047,-4.2808 1.0679,-1.9953 2.8017,-2.6196 7.2764,-2.6196 3.2309,0 6.2452,-0.6 6.6984,-1.3333 0.4532,-0.7333 3.3956,-1.3333 6.5387,-1.3333 5.932,0 10.128,2.8676 10.128,6.9216 0,1.1248 1.8,4.31 4,7.0784 2.2,2.7684 4,6.1697 4,7.5585 0,1.3888 0.8143,2.8376 1.8095,3.2196 0.9953,0.3819 2.5862,3.0475 3.5353,5.9235 0.9492,2.8761 2.6849,6.33 3.8572,7.6754 2.607,2.9924 6.798,10.6904 6.798,12.4867 0,0.7228 1.4532,3.2241 3.2295,5.5585 1.7762,2.3344 3.6304,5.851 4.1203,7.8146 0.49,1.9636 1.6913,3.8774 2.6697,4.2529 0.9784,0.3753 2.7927,2.8188 4.0316,5.4297 1.239,2.611 2.7843,4.7472 3.4341,4.7472 0.6498,0 1.1814,0.6784 1.1814,1.5075 0,0.8291 2.1,4.4304 4.6667,8.0031 2.5667,3.5725 4.6667,7.3892 4.6667,8.4812 0,1.0921 1.2,2.735 2.6666,3.651 1.4667,0.9159 2.6667,2.3402 2.6667,3.1648 0,0.8247 1.2,3.025 2.6667,4.8896 1.4666,1.8646 2.6666,4.0455 2.6666,4.8464 0,0.8011 1.05,2.5891 2.3334,3.9735 1.2833,1.3844 4.4333,5.606 7,9.3813 2.5666,3.7754 5.7695,8.1926 7.1174,9.8163 1.348,1.6236 3.4273,4.602 4.6208,6.6187 1.1935,2.0166 2.6407,3.6666 3.2159,3.6666 0.5752,0 1.0459,0.5699 1.0459,1.2666 0,0.6965 1.95,4.0493 4.3333,7.4506 2.3833,3.4015 5.0095,7.3734 5.8359,8.8264 0.8264,1.4532 2.7764,3.5344 4.3334,4.625 1.5569,1.0904 2.8307,2.8486 2.8307,3.907 0,1.0584 1.05,3.0018 2.3333,4.3186 4.6737,4.7953 15,17.3888 15,18.2933 0,0.5108 1.5,2.1087 3.3334,3.5508 1.8333,1.442 3.3333,3.4875 3.3333,4.5452 0,1.0579 2.7,4.7013 6,8.0968 3.3,3.3953 6,6.5875 6,7.0936 0,0.506 2.7,3.6588 6,7.0061 3.3,3.3472 6,6.3791 6,6.7372 0,0.3583 2.55,3.3436 5.6667,6.6342 3.1166,3.2906 7.4666,8.208 9.6666,10.9276 2.2,2.7196 7.15,8.2469 11,12.2829 3.85,4.036 7.0022,7.7357 7.0049,8.2215 0,0.4858 12.7527,13.3717 28.3334,28.6352 40.9898,40.1556 45.9771,44.9148 47.067,44.9148 0.5394,0 2.2439,1.1922 3.7878,2.6496 1.5438,1.4572 6.1069,5.5956 10.1403,9.1962 4.0333,3.6007 10.3955,9.3084 14.1382,12.6838 3.7428,3.3754 7.4238,6.137 8.18,6.137 0.7563,0 2.3579,1.5 3.5592,3.3334 1.2012,1.8333 2.8699,3.3333 3.7081,3.3333 1.5505,0 2.3486,0.618 10.1837,7.8855 2.4397,2.2629 4.7775,4.1145 5.1951,4.1145 0.4175,0 3.8213,2.7123 7.5641,6.0272 9.6588,8.5549 10.3274,9.0452 15.846,11.6179 2.7274,1.2714 4.9589,2.8074 4.9589,3.4133 0,0.6057 3.8417,3.6456 8.537,6.7549 4.6954,3.1095 10.1864,7.071 12.2024,8.8031 2.0159,1.7323 5.2243,3.9499 7.1296,4.9281 1.9054,0.9782 6.9455,4.6308 11.2002,8.117 4.2548,3.4862 8.6538,6.3385 9.7756,6.3385 1.1219,0 4.6025,2.1 7.7348,4.6667 3.1323,2.5666 6.2903,4.6666 7.0177,4.6666 0.7275,0 2.4087,1.2 3.736,2.6667 1.3274,1.4667 3.1359,2.6667 4.0191,2.6667 0.8831,0 4.2401,2.0941 7.46,4.6537 3.2198,2.5596 6.7599,4.6596 7.8669,4.6667 1.1069,0.013 2.7283,1.1589 3.6031,2.5597 0.8747,1.4007 3.4252,2.9497 5.6677,3.4423 2.2425,0.4925 4.8212,1.638 5.7303,2.5454 0.9091,0.9075 6.4529,4.24 12.3196,7.4058 5.8667,3.1657 11.5667,6.4818 12.6667,7.369 1.1,0.8874 4.8983,2.9826 8.4408,4.6563 3.5424,1.6736 6.7176,3.7644 7.056,4.6463 0.3384,0.8817 3.6575,2.4317 7.3759,3.4442 3.7183,1.0126 7.0455,2.5834 7.3937,3.4906 0.3481,0.9073 3.5806,2.6286 7.1833,3.8253 3.6026,1.1965 6.5503,2.6547 6.5503,3.24 0,0.5855 1.95,1.7979 4.3333,2.6941 6.1818,2.3248 10.8931,4.5558 11.6667,5.5244 0.3666,0.4591 3.9666,2.2286 8,3.9319 4.0333,1.7035 7.7221,3.6651 8.1972,4.3592 1.032,1.5076 10.1977,4.83 13.4032,4.8583 1.2469,0.013 2.7469,0.7828 3.3333,1.7149 1.3148,2.0896 7.6716,4.9719 10.9658,4.9719 1.3423,0 3.1055,0.801 3.9181,1.7802 0.8127,0.9792 4.0361,2.5476 7.1633,3.4854 7.1983,2.1586 11.8684,4.2765 14.1143,6.401 0.9691,0.9167 2.6441,1.6667 3.7223,1.6667 1.0782,0 5.8305,1.8095 10.5608,4.0211 4.7302,2.2114 11.7552,4.7301 15.611,5.5968 3.8559,0.8668 7.4672,2.3157 8.0252,3.22 0.5581,0.9042 4.458,2.383 8.6667,3.2864 4.2087,0.9032 8.5993,2.4448 9.7571,3.4256 1.1577,0.9809 2.7086,1.7834 3.4464,1.7834 2.2189,0 18.3974,5.5378 19.1153,6.543 0.5967,0.8356 8.1194,2.9989 17.3333,4.9848 1.8333,0.395 5.8136,1.8333 8.84504,3.196 3.0315,1.3626 9.6292,3.1945 14.6616,4.0709 5.0324,0.8764 9.7794,2.4544 10.5489,3.5068 0.9279,1.2688 5.0974,2.1668 12.3793,2.6659 6.0391,0.414 11.2972,1.2656 11.6847,1.8926 0.3875,0.627 2.105,1.14 3.8166,1.14 1.7116,0 3.4328,0.836 3.8249,1.8579 0.4393,1.1449 3.8353,2.2203 8.8497,2.8023 4.4752,0.5194 8.8952,1.7029 9.8222,2.6298 0.9271,0.9271 6.9356,2.4667 13.3524,3.4214 6.4169,0.9546 11.9756,2.2352 12.3529,2.8454 0.3772,0.6104 3.3505,1.1099 6.6072,1.1099 3.2567,0 5.9213,0.5236 5.9213,1.1637 0,0.64 2.85,1.4988 6.3333,1.9086 3.4833,0.4096 11.7333,1.6832 18.3333,2.8301 6.6,1.1468 14.0461,1.7032 16.5468,1.2363 3.5462,-0.662 4.9472,-0.3012 6.3664,1.6396 1.5237,2.0837 2.2451,2.2228 4.4352,0.8552 3.6504,-2.2799 5.8675,-2.0432 8.5415,0.9114 1.8561,2.0511 5.0014,2.7288 16.2066,3.4927 7.647,0.5212 13.9035,1.4109 13.9035,1.9771 0,2.2324 6.9895,2.7732 9.2618,0.7168 3.4383,-3.1118 6.4039,-2.518 11.3314,2.2685 4.3756,4.2504 4.47,4.5843 4.9339,17.4423 0.3819,10.5844 0.9223,13.437 2.8063,14.8136 2.5359,1.8528 3.1426,6.7532 1,8.0774 -1.6227,1.003 -1.7943,17.5578 -0.1923,18.5479 0.6275,0.3879 1.5685,7.4611 2.091,15.7184 0.5225,8.2572 1.659,15.8675 2.5256,16.9116 0.9032,1.0881 1.6482,6.7139 1.7457,13.1807 0.093,6.2052 0.7148,11.663 1.3807,12.1285 0.6659,0.4655 1.8355,3.9963 2.599,7.8463 l 1.3883,7 -7.4357,-0.1531 c -4.0896,-0.084 -16.1357,-0.9905 -26.769,-2.0141 z m 247.5378,-2.7787 c -0.372,-1.3131 -1.0923,-5.0525 -1.6007,-8.3097 -0.5085,-3.2574 -1.6395,-6.6374 -2.5133,-7.5111 -0.8738,-0.8739 -2.3603,-7.5088 -3.3032,-14.7444 -0.9431,-7.2356 -2.5332,-14.6556 -3.5339,-16.4889 -1.0316,-1.89 -2.7223,-13.4116 -3.9048,-26.6098 -1.1471,-12.802 -2.6252,-23.6098 -3.2847,-24.0174 -0.6594,-0.4076 -1.3392,-19.1566 -1.5104,-41.6644 -0.2389,-31.387 0.081,-41.3964 1.373,-42.9531 0.9969,-1.2012 2.5361,-11.4303 3.7706,-25.0592 1.2932,-14.2761 2.7098,-23.5363 3.7267,-24.3628 0.9023,-0.7333 2.3743,-7.5303 3.2711,-15.1043 0.9813,-8.2865 2.2808,-14.0205 3.263,-14.3974 0.8978,-0.3444 2.4255,-5.7244 3.3948,-11.9555 0.9692,-6.2311 2.2615,-11.6376 2.8715,-12.0147 0.6101,-0.377 1.1092,-2.1501 1.1092,-3.9401 0,-1.7901 0.5472,-3.2547 1.2161,-3.2547 0.669,0 1.6431,-2.5269 2.1648,-5.6153 0.5219,-3.0885 1.4256,-6.5385 2.0083,-7.6667 2.7223,-5.2702 6.4684,-14.6076 8.0448,-20.0513 0.9556,-3.3 2.7561,-7.3448 4.0012,-8.9884 1.2449,-1.6436 2.6473,-5.0333 3.1161,-7.5327 0.469,-2.4993 1.7324,-5.2745 2.8078,-6.1669 1.0753,-0.8924 2.5858,-3.9651 3.3568,-6.828 0.7709,-2.8631 2.8752,-7.3768 4.6762,-10.0308 1.801,-2.6539 3.2746,-5.33 3.2746,-5.9467 0,-0.6168 1.95,-4.2913 4.3333,-8.1656 6.4561,-10.4949 8.6785,-14.4181 11.7112,-20.6742 1.5108,-3.1167 3.3108,-5.6667 4,-5.6667 0.6892,0 2.1659,-1.95 3.2815,-4.3333 1.9641,-4.196 6.5133,-10.9694 10.8925,-16.218 1.1707,-1.4031 3.3097,-4.5531 4.7533,-7 1.4438,-2.4468 3.1656,-4.4487 3.8266,-4.4487 0.6608,0 1.2016,-0.7113 1.2016,-1.5808 0,-0.8695 2.4,-4.4272 5.3333,-7.9059 2.9333,-3.4788 5.3333,-6.6586 5.3333,-7.0665 0,-0.9148 8.0178,-9.4637 28.1239,-29.9871 8.5013,-8.6777 15.8377,-16.7698 16.3031,-17.9824 0.4652,-1.2124 1.9094,-2.604 3.2094,-3.0924 1.3,-0.4884 3.9335,-2.4248 5.8522,-4.303 1.9185,-1.8784 6.9189,-6.4152 11.1118,-10.0819 4.193,-3.6667 8.9932,-7.8667 10.6672,-9.3333 3.509,-3.0743 7.2007,-5.6188 10.0658,-6.9376 1.1,-0.5064 3.0936,-2.3026 4.4301,-3.9915 1.3365,-1.6891 3.2865,-3.0709 4.3333,-3.0709 1.0468,0 2.9834,-1.05 4.3036,-2.3334 3.6304,-3.529 16.9236,-12.3333 18.6216,-12.3333 0.8214,0 2.2775,-1.0592 3.2358,-2.3539 0.9582,-1.2946 3.2422,-3.1184 5.0756,-4.0528 5.9088,-3.0116 9.2602,-5.1138 11.7625,-7.3784 1.346,-1.2182 3.4204,-2.2149 4.6096,-2.2149 1.1891,0 2.6419,-0.75 3.2283,-1.6667 1.3533,-2.1153 6.4661,-5 8.8621,-5 1.0076,0 3.9341,-1.4265 6.5033,-3.1701 2.5694,-1.7435 6.8951,-3.9039 9.6128,-4.8008 2.7178,-0.8969 5.241,-2.4115 5.6071,-3.3656 0.3661,-0.954 2.8453,-2.1436 5.5095,-2.6433 2.6641,-0.4999 7.5678,-2.3588 10.897,-4.1311 3.3292,-1.7724 6.9934,-3.2224 8.1423,-3.2224 1.1491,0 3.2537,-0.8809 4.6773,-1.9576 1.4235,-1.0767 3.9382,-1.9767 5.5882,-2 1.65,-0.023 3,-0.6424 3,-1.3757 0,-0.7334 1.08,-1.3334 2.4,-1.3334 1.32,0 2.97,-0.5154 3.6666,-1.1453 0.6967,-0.63 4.8202,-1.8307 9.1634,-2.6683 4.3432,-0.8376 8.8432,-2.3282 10,-3.3126 1.1568,-0.9844 6.6033,-2.5511 12.1033,-3.4815 5.5,-0.9304 10.9,-2.4555 12,-3.3892 1.1,-0.9337 7.4,-2.4272 14,-3.3188 6.6,-0.8916 13.2531,-2.4105 14.7845,-3.3756 1.5316,-0.9649 7.6716,-2.1808 13.6447,-2.7019 6.5429,-0.5706 11.4639,-1.6746 12.3788,-2.777 1.7955,-2.1634 7.3283,-2.4334 8.5736,-0.4184 1.0892,1.7624 8.5028,0.3133 11.39,-2.2264 2.4268,-2.1346 7.8951,-2.4936 7.8951,-0.5183 0,1.9368 25.7321,1.7345 27.6842,-0.2176 2.6331,-2.6331 21.8642,-3.0984 27.1115,-0.656 3.1529,1.4676 9.6235,2.2531 21.2043,2.5741 21.2206,0.5884 60.1705,5.0146 62.2709,7.0762 0.8824,0.8661 7.6793,2.3189 15.1043,3.2285 8.3333,1.0208 13.7478,2.2995 14.1476,3.3412 0.365,0.9511 5.3132,2.4132 11.3401,3.3508 6.1115,0.9507 10.9733,2.3952 11.348,3.3717 0.3605,0.9396 3.5321,2.104 7.048,2.5875 3.5159,0.4836 8.0395,1.7337 10.0525,2.7781 2.013,1.0443 4.4915,1.8988 5.5076,1.8988 1.0162,0 1.8476,0.6 1.8476,1.3334 0,0.7333 0.9376,1.3333 2.0835,1.3333 3.4255,0 19.8405,5.8829 20.8801,7.4832 0.53,0.8157 3.83,2.25 7.3334,3.1871 3.5033,0.9372 6.9697,2.4274 7.703,3.3116 0.7334,0.8842 3.7334,2.4224 6.6667,3.418 2.9333,0.9956 5.9764,2.5564 6.7623,3.4682 0.786,0.912 4.836,2.9328 9,4.4908 4.1641,1.558 7.5768,3.2396 7.5837,3.7368 0.013,0.4974 2.7069,2.0888 6,3.5364 3.2931,1.4478 5.9873,3.0034 5.9873,3.4571 0,0.4537 2.85,2.2488 6.3334,3.9891 3.4833,1.7402 8.0293,4.5345 10.1022,6.2096 2.073,1.675 4.6019,3.0454 5.6198,3.0454 1.018,0 2.493,1.2 3.278,2.6667 0.7849,1.4667 2.2852,2.6667 3.3338,2.6667 1.0487,0 3.8776,1.719 6.2864,3.8201 2.4088,2.1011 5.6214,4.2071 7.139,4.68 1.5174,0.4731 4.0854,2.654 5.7065,4.8467 1.6211,2.1925 3.6107,3.9865 4.4213,3.9865 0.8106,0 2.8394,1.35 4.5083,3 1.6689,1.65 7.9111,6.9 13.8715,11.6667 10.6546,8.5208 44.0665,40.8478 44.0665,42.6357 0,0.5025 1.5,1.7164 3.3333,2.6976 1.8334,0.9812 3.3334,2.4561 3.3334,3.2779 0,0.8216 3.804,5.6701 8.4533,10.7746 10.7329,11.7835 12.2451,14.4996 9.9205,17.8184 -4.5414,6.4839 -43.3302,47.3564 -65.9209,69.4624 -209.4511,204.9567 -478.176,334.5231 -768.4529,370.5115 -36.8574,4.5696 -37.0302,4.5781 -37.7956,1.876 z M 816.39966,2078.6405 c -13.1783,-1.2608 -34.4155,-6.4936 -34.3462,-8.4627 0.17,-4.8261 6.3489,-29.5116 7.3795,-29.4816 0.6785,0.02 6.708,1.3697 13.3988,3 15.8883,3.8713 37.2329,4.0875 45.2234,0.4579 9.6562,-4.3862 15.253,-13.8519 15.2708,-25.8271 0,-2.75 -0.2193,-5 -0.4964,-5 -0.2771,0 -2.6568,0.8996 -5.2882,1.9991 -12.3612,5.1648 -34.4424,4.8689 -49.2183,-0.6594 -15.2008,-5.6874 -27.7414,-21.5725 -31.5763,-39.9977 -0.8385,-4.0285 -1.5245,-13.4483 -1.5245,-20.9328 0,-33.6145 17.3467,-57.0483 48.2063,-65.122 15.1562,-3.9652 44.163,-2.7413 69.6482,2.9385 l 9.0768,2.023 -0.4989,68.2089 c -0.5379,73.5389 -0.5418,73.5823 -7.9875,88.2355 -4.2472,8.3584 -14.982,18.5362 -23.3219,22.1118 -13.5444,5.807 -34.6559,8.3542 -53.9456,6.5086 z m 41.2909,-93.2883 5.6905,-2.5828 -0.3572,-32.3879 -0.3572,-32.3878 -11.3333,-0.4175 c -13.3611,-0.4921 -19.7459,1.1051 -25.8537,6.4679 -7.2827,6.3944 -10.6748,15.8452 -10.7495,29.9496 -0.036,6.7802 0.7113,14.1896 1.7178,17.0338 2.3062,6.5175 7.6917,12.8572 12.8193,15.0907 6.2404,2.7181 21.6629,2.3025 28.4233,-0.766 z m 1596.53544,45.4949 c -3.8839,-4.136 -7.4736,-8.1802 -7.9771,-8.9872 -0.5035,-0.8069 -2.2655,-2.178 -3.9155,-3.0469 -1.65,-0.8689 -3,-2.4587 -3,-3.5329 0,-1.0742 -0.529,-1.9531 -1.1756,-1.9531 -0.6466,0 -4.9966,-3.8959 -9.6666,-8.6573 -4.6702,-4.7616 -8.9672,-8.6616 -9.5491,-8.6667 -0.582,0 -4.3005,-3.1593 -8.2635,-7.0093 -3.9629,-3.85 -10.8368,-10.288 -15.2752,-14.3067 -8.4785,-7.6765 -10.5332,-13.1824 -5.8892,-15.7812 1.1994,-0.6713 2.5547,-3.5511 3.0116,-6.3996 0.5758,-3.5887 1.7414,-5.5803 3.7955,-6.4851 1.6305,-0.7182 3.492,-2.8189 4.1367,-4.6681 0.6445,-1.8492 2.7553,-5.6952 4.6904,-8.5468 1.935,-2.8516 3.5184,-6.208 3.5184,-7.4587 0,-1.2506 1.1084,-3.2769 2.463,-4.5029 1.3547,-1.226 3.6047,-4.612 5,-7.5247 1.3954,-2.9126 2.9202,-5.3025 3.3886,-5.3109 0.4684,-0.013 1.2258,-2.0103 1.6833,-4.4484 0.4573,-2.4381 1.8741,-5.5915 3.1483,-7.0075 3.1926,-3.5476 8.3168,-13.1581 8.3168,-15.5984 0,-1.1049 0.8376,-2.3305 1.8612,-2.7233 1.0237,-0.3928 2.872,-3.7571 4.1072,-7.476 1.2352,-3.7189 2.7745,-6.7617 3.4206,-6.7617 0.6462,0 1.8023,-2.3302 2.5691,-5.178 0.7669,-2.8479 2.29,-5.9214 3.3848,-6.83 1.0947,-0.9086 2.0108,-2.3284 2.0356,-3.1552 0.025,-0.827 1.2045,-3.9035 2.6215,-6.8368 1.4169,-2.9334 2.5965,-6.0834 2.6214,-7 0.025,-0.9167 0.6452,-1.6667 1.3786,-1.6667 0.7333,0 1.3537,-1.05 1.3785,-2.3333 0.025,-1.2834 1.2045,-4.7334 2.6215,-7.6667 1.4169,-2.9333 2.5965,-6.3099 2.6214,-7.5035 0.025,-1.1934 0.9576,-2.9273 2.073,-3.8528 1.1152,-0.9256 2.6829,-4.2854 3.484,-7.4664 0.8009,-3.1808 2.5606,-7.0568 3.9105,-8.613 1.3497,-1.5564 2.8572,-5.5178 3.3499,-8.8031 0.4926,-3.2853 1.6656,-6.2687 2.6064,-6.6297 0.9408,-0.361 2.7181,-3.7632 3.9496,-7.5606 2.1321,-6.5748 5.0392,-13.8929 7.2446,-18.2376 0.5584,-1.1 1.7843,-5.3 2.7242,-9.3333 0.9398,-4.0333 2.512,-8.2579 3.4936,-9.3877 0.9816,-1.13 2.4728,-5.33 3.314,-9.3334 0.841,-4.0034 2.294,-8.1789 3.2288,-9.2789 2.1613,-2.5433 4.6666,-14.3645 4.6666,-22.0187 0,-4.2636 0.6498,-6.2352 2.3555,-7.1481 2.8169,-1.5076 6.9779,-14.2363 6.9779,-21.346 0,-3.3671 0.89,-5.8793 2.6456,-7.4681 1.5976,-1.4459 2.9861,-4.961 3.5052,-8.8734 0.4726,-3.5634 1.3821,-6.479 2.0209,-6.479 0.6389,0 1.1616,-3.2646 1.1616,-7.2547 0,-3.99 0.6,-7.6255 1.3333,-8.0787 0.7334,-0.4532 1.3334,-2.2532 1.3334,-4 0,-1.7468 0.6,-3.5468 1.3333,-4 0.7333,-0.4532 1.3333,-2.5244 1.3333,-4.6026 0,-2.1288 0.8732,-4.1138 2,-4.5462 1.5078,-0.5785 2,-3.0096 2,-9.876 0,-5.1396 0.675,-9.7834 1.5488,-10.6573 0.8522,-0.8521 1.515,-5.1499 1.4735,-9.5531 -0.049,-5.2982 0.5535,-8.526 1.7845,-9.5477 1.023,-0.8489 1.8599,-3.5347 1.8599,-5.9683 0,-2.4336 0.5429,-4.7602 1.2064,-5.1704 0.6636,-0.41 0.8949,-3.0677 0.5143,-5.9057 -0.4136,-3.0836 -0.095,-5.5299 0.7936,-6.0785 0.8172,-0.505 1.4857,-3.3016 1.4857,-6.2147 0,-3.478 0.6867,-5.56 2,-6.064 1.1295,-0.4333 2,-2.4191 2,-4.562 0,-2.0871 0.7037,-5.3392 1.5639,-7.2269 1.1961,-2.6254 1.1961,-3.7999 0,-4.996 -2.0848,-2.0848 -1.9112,-6.4603 0.3761,-9.4787 1.1727,-1.5475 1.5816,-4.1337 1.1116,-7.0301 -0.5229,-3.2218 -0.084,-5.3116 1.4801,-7.0394 1.656,-1.8298 2.0098,-3.7958 1.3854,-7.7008 -0.6286,-3.9305 -0.3058,-5.6857 1.2889,-7.0092 2.3647,-1.9625 2.8652,-7.4922 0.794,-8.7724 -2.0619,-1.2742 -1.5743,-9.4734 0.6743,-11.3396 1.4136,-1.1732 2.0136,-4.2788 2.0278,-10.4966 0.055,-23.5052 0.646,-30.1847 2.9646,-33.4604 3.0918,-4.3684 3.3301,-21.5495 0.3333,-24.0367 -2.9045,-2.4105 -2.5163,-9.7861 0.6667,-12.6667 2.5805,-2.3354 2.6666,-4.1066 2.6666,-54.8733 0,-50.6822 -0.091,-52.5504 -2.6666,-55.1267 -3.1642,-3.1642 -3.4423,-7.4149 -0.6667,-10.1905 3.2049,-3.205 2.7073,-16.7561 -0.7296,-19.8665 -2.3475,-2.1244 -2.6073,-3.4504 -1.8552,-9.4698 1.0283,-8.2297 -1.9183,-53.8942 -3.5967,-55.7399 -0.6334,-0.6966 -1.1518,-4.9466 -1.1518,-9.4444 0,-4.4978 -0.45,-8.6236 -1,-9.1686 -1.015,-1.0055 -3.2683,-15.6822 -5.7504,-37.4536 -0.7526,-6.6 -2.192,-13.8 -3.1991,-16 -1.0069,-2.2 -2.5539,-9.1 -3.4376,-15.3334 -0.8837,-6.2333 -2.3528,-12.2333 -3.2647,-13.3333 -0.9117,-1.1 -2.022,-5.3 -2.467,-9.3333 -0.558,-5.0557 -1.6488,-8.0209 -3.512,-9.5471 -2.8871,-2.3649 -3.6096,-7.0683 -1.3044,-8.4929 0.8758,-0.5414 0.9354,-1.4422 0.1596,-2.4121 -0.6811,-0.8513 -2.0108,-6.8247 -2.955,-13.2741 -0.9441,-6.4493 -2.216,-12.0347 -2.8262,-12.412 -0.6104,-0.3772 -1.1099,-1.8586 -1.1099,-3.2919 0,-1.4334 -0.5692,-3.648 -1.2651,-4.9213 -0.6957,-1.2734 -1.6304,-5.1513 -2.0769,-8.6175 -0.4467,-3.4663 -1.3775,-6.65166 -2.0684,-7.07866 -0.6909,-0.4271 -1.2563,-2.2411 -1.2563,-4.0311 0,-1.7901 -0.4709,-3.2547 -1.0465,-3.2547 -0.5757,0 -1.7249,-3.15 -2.5539,-7 -2.751,-12.7759 -5.0481,-20.5874 -6.6081,-22.4713 -0.848,-1.0241 -1.9781,-4.7921 -2.5115,-8.3734 -0.5332,-3.5813 -2.0056,-7.5476 -3.272,-8.8139 -1.2664,-1.2664 -3.0633,-6.3347 -3.9932,-11.2628 -0.9298,-4.9282 -2.4514,-9.2523 -3.3814,-9.6092 -0.93,-0.3568 -2.0996,-3.4584 -2.5994,-6.8924 -0.4996,-3.434 -1.7617,-7.5725 -2.8045,-9.1967 -1.0429,-1.6242 -1.8961,-4.1242 -1.8961,-5.5556 0,-1.4313 -0.4527,-2.8024 -1.0059,-3.0469 -0.5533,-0.2444 -2.4431,-4.6444 -4.1995,-9.7778 -1.7565,-5.1333 -3.9588,-10.2333 -4.894,-11.3333 -0.9352,-1.1 -2.4064,-4.8092 -3.2693,-8.2427 -0.8629,-3.4334 -2.3327,-6.5357 -3.2661,-6.8939 -0.9335,-0.3582 -2.1159,-3.4423 -2.6274,-6.8535 -0.5116,-3.4111 -2.0716,-7.3436 -3.4666,-8.7388 -1.3952,-1.3951 -2.9158,-4.2019 -3.3791,-6.2372 -0.4633,-2.0353 -2.5215,-7.3006 -4.5736,-11.7006 -2.0521,-4.4 -4.7648,-10.4 -6.0283,-13.3333 -1.2634,-2.9333 -3.014,-6.2333 -3.8901,-7.3333 -0.8761,-1.1 -2.3853,-4.5187 -3.3537,-7.5971 -0.9683,-3.0784 -2.575,-5.9096 -3.5702,-6.2915 -0.9953,-0.3819 -1.8096,-1.8295 -1.8096,-3.21688 0,-1.3873 -1.4265,-4.6245 -3.1701,-7.1938 -1.7435,-2.5692 -3.8872,-6.8446 -4.7639,-9.5008 -0.8766,-2.6562 -2.1501,-5.1732 -2.83,-5.5934 -2.7192,-1.6806 -1.2542,-8.3994 2.4307,-11.1473 2.0167,-1.5039 4.5667,-3.5695 5.6667,-4.5902 1.1,-1.0207 3.95,-2.8492 6.3333,-4.0633 2.3833,-1.2142 4.3333,-2.7921 4.3333,-3.5066 0,-0.7145 0.75,-1.3056 1.6667,-1.3135 2.4803,-0.021 17.7596,-10.669 33,-22.9966 20.5544,-16.6259 21.7524,-17.3685 23.7508,-14.7214 2.8823,3.8177 28.7617,55.8821 38.8295,78.117 68.5468,151.38828 107.6708,310.54634 117.4064,477.61534 1.7033,29.2307 1.7033,117.4359 0,146.6667 -10.7539,184.5425 -57.3512,359.4994 -139.4612,523.6281 -16.9866,33.9544 -49.4135,91.8235 -59.7099,106.5587 -1.3353,1.9109 -2.4191,1.2381 -8.5897,-5.3334 z m -1104.2259,0.9912 c -24.6546,-4.1886 -43.7987,-24.564 -51.2174,-54.5113 -5.8685,-23.6899 -5.6856,-58.9495 0.4298,-82.8607 7.8084,-30.5305 27.4191,-50.889 52.3463,-54.3424 27.7401,-3.843 49.5666,7.6098 62.9158,33.0134 10.1856,19.3833 14.6356,49.421 11.8303,79.8564 -4.5565,49.4336 -25.0245,76.3678 -60.3048,79.3564 -4.7667,0.4037 -11.9667,0.1734 -16,-0.5118 z m 24.5619,-38.8597 c 9.0489,-9.4545 12.7186,-25.8963 12.7186,-56.9849 0,-31.0887 -3.6697,-47.5304 -12.7186,-56.985 -5.0934,-5.3214 -5.8964,-5.6814 -12.6667,-5.6768 -9.0383,0 -14.5,3.1396 -19.0721,10.9412 -6.3603,10.8531 -8.0343,21.6291 -8.0343,51.7206 0,30.0914 1.674,40.8674 8.0343,51.7205 4.5721,7.8016 10.0338,10.9349 19.0721,10.9412 6.7703,0 7.5733,-0.3553 12.6667,-5.6768 z m 262.1048,38.8299 c -11.7472,-1.0898 -36.9418,-6.8899 -39.0391,-8.9872 -0.7072,-0.7072 0.2877,-7.6786 2.4308,-17.0338 l 3.6279,-15.8366 11.4901,3.9957 c 10.6959,3.7196 12.8269,3.9976 30.8236,4.0215 17.4545,0.023 19.8717,-0.2623 24.874,-2.9372 6.7896,-3.6307 10.6657,-8.3764 12.5467,-15.3615 3.0626,-11.374 -1.8086,-21.9824 -12.6576,-27.5653 -5.8495,-3.0103 -8.5187,-3.438 -24.3334,-3.9003 l -17.763,-0.5191 v -15.7084 -15.7084 l 16.3333,-0.4705 c 17.8504,-0.5141 22.6517,-2.1329 28.1317,-9.4848 4.095,-5.4937 4.5888,-18.8696 0.9131,-24.7297 -7.538,-12.0182 -32.2657,-12.9447 -53.844,-2.0175 -3.5563,1.8008 -6.6373,3.0839 -6.8469,2.8512 -0.2095,-0.2325 -3.4095,-6.4816 -7.1111,-13.8867 l -6.7301,-13.4637 10.0104,-4.9497 c 14.786,-7.3111 27.783,-10.3223 44.561,-10.3238 39.3892,0 61.2492,18.16 61.2492,50.8922 0,8.7352 -0.5933,11.4036 -4.093,18.4072 -2.5058,5.0144 -6.6467,10.4248 -10.6774,13.9508 l -6.5844,5.7597 8.0828,5.2307 c 13.5722,8.7833 19.7542,19.5645 20.9083,36.4641 1.1857,17.3625 -4.2349,32.9941 -15.1052,43.5588 -14.5472,14.1384 -40.4728,20.6025 -71.1977,17.7523 z m -654.66674,-0.699 c -34.9704,-2.5517 -50.8,-16.7384 -50.8,-45.5276 0,-9.4402 0.5655,-12.4445 3.4534,-18.3473 5.7684,-11.79 15.7805,-18.8305 32.3182,-22.7261 9.5064,-2.2394 31.77704,-2.918 41.36174,-1.2604 l 5.6667,0.98 v -4.5014 c 0,-5.8154 -4.9676,-15.4909 -9.7394,-18.9696 -5.255,-3.8309 -28.23554,-4.6222 -43.63214,-1.5025 -6.0118,1.2181 -11.2026,1.9428 -11.5351,1.6103 -0.6726,-0.6726 -5.5183,-30.2046 -4.9561,-30.2046 0.1953,0 4.5605,-0.8846 9.7006,-1.9658 25.5248,-5.3694 52.04904,-5.0322 67.80214,0.8618 11.5566,4.3239 21.8565,15.1788 25.8144,27.2055 2.8881,8.776 3.0645,11.6257 3.5739,57.7165 0.2947,26.6666 0.034,48.9676 -0.5796,49.558 -3.3895,3.2619 -51.9335,8.2783 -68.44874,7.0732 z m 32.00004,-45.6398 c 0,-13.2299 -0.3495,-15.9915 -2.1091,-16.6667 -1.1599,-0.4452 -7.9099,-0.7961 -15.00004,-0.78 -16.2881,0.037 -23.2862,2.7332 -26.3929,10.1688 -3.4997,8.3759 0.01,17.7411 7.936,21.1897 2.779,1.2088 9.613,1.8591 19.89934,1.8934 l 15.6667,0.052 z m -485.33344,-47.4506 v -91.308 l 3,-0.6152 c 24.673,-5.06 68.4535,-5.0877 88.3334,-0.056 12.0403,3.0475 26.4028,10.3564 32.6732,16.6267 3.0745,3.0745 7.4809,9.5809 9.7918,14.4584 3.9885,8.4184 4.2016,9.6816 4.2016,24.8964 0,15.4252 -0.1648,16.3629 -4.3823,24.9299 -4.8451,9.8418 -12.4128,17.387 -22.5603,22.493 -3.5149,1.7687 -6.613,3.338 -6.8848,3.4876 -0.2717,0.1495 1.3009,2.5495 3.4946,5.3334 8.2198,10.4308 24.4889,36.4074 32.9296,52.5785 4.8051,9.2059 8.7366,17.1307 8.7366,17.6105 0,0.4799 -10.1047,0.8724 -22.4548,0.8724 h -22.4548 l -3.7768,-7 c -8.0068,-14.8398 -23.8694,-40.7854 -30.9765,-50.6666 l -7.4324,-10.3334 h -11.1191 -11.119 v 34 34 h -20 -20 v -91.3078 z m 80.6041,-12.679 c 11.8181,-3.6352 18.3838,-15.8492 15.4845,-28.805 -3.0848,-13.7844 -11.7244,-18.1172 -37.7552,-18.9349 l -18.3334,-0.5759 v 25.6391 25.6392 l 17.6667,-0.6707 c 9.7167,-0.3688 20.0385,-1.4001 22.9374,-2.2918 z m 94.0626,33.3202 v -70.6666 h 20 20 v 70.6666 70.6667 h -20 -20 z m 444.30334,56.3011 c 0.5287,-11.1555 1.4336,-16.2293 4.0493,-22.7051 6.6364,-16.43 11.6297,-22.8197 39.7632,-50.8825 30.0747,-29.9991 33.5985,-34.9521 33.5985,-47.2257 0,-14.773 -8.2855,-21.4388 -25.5863,-20.5848 -11.5049,0.5678 -20.6469,4.17 -31.259,12.3168 -3.5554,2.7294 -6.6063,4.7716 -6.7799,4.5381 -4.3404,-5.8405 -17.1235,-24.4983 -17.555,-25.6225 -0.6992,-1.8223 9.1217,-9.4891 19.4659,-15.1964 12.4022,-6.8427 24.2885,-9.8304 39.3333,-9.8864 30.0424,-0.112 48.9122,9.0565 57.7788,28.0736 3.1231,6.6984 3.5179,9.1786 3.5352,22.2072 0.018,13.8532 -0.2252,15.1833 -4.3908,23.9806 -6.5079,13.744 -12.9991,21.7683 -36.1488,44.686 -19.8117,19.6132 -32.1077,33.4456 -32.1077,36.1198 0,0.7018 16.587,1.2136 39.3333,1.2136 h 39.3334 v 16.6666 16.6667 h -61.5222 -61.5221 z m 304.0001,0 c 0.5286,-11.1555 1.4336,-16.2293 4.0493,-22.7051 6.6363,-16.43 11.6296,-22.8197 39.7631,-50.8825 30.0746,-29.9991 33.5985,-34.9521 33.5985,-47.2257 0,-14.773 -8.2855,-21.4388 -25.5863,-20.5848 -11.5049,0.5678 -20.6469,4.17 -31.259,12.3168 -3.5554,2.7294 -6.6063,4.7716 -6.7799,4.5381 -4.3404,-5.8405 -17.1235,-24.4983 -17.5549,-25.6225 -0.6994,-1.8223 9.1216,-9.4891 19.4658,-15.1964 12.4022,-6.8427 24.2886,-9.8304 39.3334,-9.8864 30.0422,-0.112 48.9121,9.0565 57.7788,28.0736 3.123,6.6984 3.5178,9.1786 3.535,22.2072 0.019,13.8532 -0.2252,15.1833 -4.3908,23.9806 -6.5077,13.744 -12.9989,21.7683 -36.1486,44.686 -19.8118,19.6132 -32.1078,33.4456 -32.1078,36.1198 0,0.7018 16.587,1.2136 39.3334,1.2136 h 39.3333 v 16.6666 16.6667 h -61.5221 -61.5222 z M 716.71546,1869.0917 c -11.0933,-3.1751 -16.0488,-10.02 -16.0488,-22.168 0,-5.9635 0.7265,-8.938 3,-12.2835 8.4348,-12.4119 30.0956,-12.8684 38.693,-0.8155 2.3958,3.3588 2.9737,5.9827 2.9737,13.5023 0,7.5196 -0.5779,10.1435 -2.9737,13.5023 -5.0305,7.0522 -16.7168,10.8176 -25.6442,8.2624 z m -57.3821,-85.2228 c -58.2809,-4.588 -99.0654,-36.4316 -112.5482,-87.8752 -5.6704,-21.6354 -6.1185,-32.4703 -6.1185,-147.9475 v -109.3859 h 38 38 v 110.0563 c 0,122.2156 -0.028,121.7739 8.7386,140.12 5.5942,11.7079 15.8442,21.6077 26.9326,26.0128 6.6696,2.6496 10.0802,3.0495 26.3288,3.0871 16.5595,0.039 19.5463,-0.3108 26.4583,-3.0924 15.6478,-6.2971 27.4631,-19.1047 33.1937,-35.9815 l 3.0115,-8.8689 0.377,-115.6667 0.3771,-115.6667 h 38.0182 38.0182 l -0.4683,118.3334 c -0.4526,114.3352 -0.5624,118.7388 -3.2492,130.3333 -9.0363,38.9949 -27.9285,64.9517 -59.0698,81.1585 -24.191,12.5896 -59.5374,18.2536 -96,15.3834 z m 321.3333,0.5576 c -25.0009,-1.1203 -57.6909,-5.6204 -81.5975,-11.2331 l -11.7358,-2.7552 v -180.3799 -180.3797 l 34.3333,-5.5317 c 18.8834,-3.0424 35.0834,-5.5215 36,-5.5091 1.31,0.017 1.6667,13.752 1.6667,64.1652 0,60.5599 0.1304,64.0897 2.3333,63.1964 21.8185,-8.8481 42.76944,-11.9743 65.91004,-9.8348 64.1882,5.9344 100.7463,58.0872 98.0177,139.8291 -1.3088,39.206 -11.5363,67.1678 -32.8201,89.7297 -26.528,28.1212 -63.4897,40.8815 -112.10764,38.7031 z m 37.33344,-66.5588 c 14.9191,-7.1028 23.5364,-17.7608 30.0835,-37.2074 2.9658,-8.8094 3.7052,-13.8008 4.2462,-28.6666 1.0844,-29.7966 -4.0162,-49.3646 -16.2868,-62.4828 -8.7779,-9.3843 -16.7798,-12.5519 -33.4568,-13.2442 -14.32544,-0.5946 -24.10724,1.1524 -36.64064,6.5442 l -6.6122,2.8445 v 67.7553 67.7554 l 5,0.5797 c 2.75,0.3188 14,0.5051 25,0.4137 19.44044,-0.1612 20.24254,-0.2813 28.66674,-4.2918 z m 595.0601,66.0877 c -42.7956,-2.948 -76.0458,-16.2559 -101.5882,-40.6591 -23.446,-22.4001 -37.8167,-51.3905 -44.9287,-90.636 -3.4341,-18.9497 -3.524,-66.7742 -0.1589,-84.6145 6.7829,-35.9623 23.187,-67.5533 47.1626,-90.8264 18.0287,-17.5004 35.2731,-28.0044 58.8378,-35.8397 40.8517,-13.5834 92.3444,-13.0746 136.4878,1.3485 8.7851,2.8704 28.9718,11.7535 31.4216,13.8271 0.3388,0.2868 -20.7488,59.6709 -21.4321,60.3541 -0.2487,0.2487 -3.6943,-0.9815 -7.6571,-2.7337 -12.0185,-5.3143 -31.8622,-11.3454 -44.3796,-13.4882 -17.2444,-2.9521 -42.8214,-2.6486 -56.6752,0.6724 -31.8056,7.6247 -54.7592,31.393 -64.4018,66.6875 -2.7906,10.214 -3.0742,13.9879 -3.002,39.9463 0.073,26.6354 0.328,29.5866 3.586,41.6516 5.0176,18.5805 11.5522,30.3369 23.609,42.4742 18.2612,18.3832 37.7183,25.2075 71.87,25.2075 28.6766,0 57.2795,-5.7513 76.1439,-15.3105 l 6.4693,-3.2784 3.4587,9.6278 c 1.9023,5.2952 6.6311,19.0422 10.5084,30.5486 l 7.0497,20.9208 -10.054,4.6665 c -33.1229,15.3736 -77.9856,22.5081 -122.3272,19.4536 z m -336.3935,-1.3827 c -45.2599,-3.4505 -75.1274,-24.3516 -87.236,-61.0473 -7.4245,-22.5004 -7.6825,-26.1112 -8.3737,-117.1984 l -0.6399,-84.3333 h 36.1248 36.1248 v 69.8586 c 0,38.8843 0.6159,75.8598 1.3889,83.3931 2.5447,24.7975 8.1548,36.8177 20.3332,43.5665 6.8917,3.8191 7.1174,3.8484 29.6113,3.8484 12.4666,0 23.7166,-0.4312 25,-0.9581 2.1928,-0.9004 2.3333,-6.9443 2.3333,-100.3333 v -99.3752 h 36 36 v 124.4409 124.4409 l -15.6666,3.5551 c -37.9692,8.6163 -80.2919,12.4833 -111.0001,10.1421 z m 602.6667,-141.2457 v -137.3333 h -51.3333 -51.3333 v -32.6667 -32.6667 h 140 140 v 32.6667 32.6667 h -51.3334 -51.3333 v 137.3333 137.3333 h -37.3333 -37.3334 z m 228,-32.6667 v -170 h 113.3334 113.3333 v 32 32 h -76 -76 v 36 36 h 67.3333 67.3334 v 32 32 h -67.3334 -67.3333 v 70 70 h -37.3333 -37.3334 z M 56.296962,1706.4614 c -28.502,-97.9168 -45.6205,-197.5651 -51.6169005,-300.4677 -1.7034,-29.2308 -1.7034,-117.436 0,-146.6667 C 14.386462,1092.7599 53.217462,934.36424 121.37246,783.32706 c 7.8841,-17.472 10.1673,-21.4141 12.6142,-21.7796 1.6432,-0.2454 3.6384,0.2046 4.4338,1 0.7954,0.7954 2.5262,1.4462 3.8462,1.4462 1.32,0 2.4,0.532 2.4,1.182 0,0.6502 1.65,1.5042 3.6667,1.898 7.6559,1.4949 19.7202,5.5467 21,7.0529 0.7333,0.863 4.4536,2.2889 8.2673,3.1686 3.8137,0.8797 7.6336,2.4425 8.4886,3.4728 0.8551,1.0303 3.8972,2.504 6.7601,3.2749 2.863,0.771 7.3768,2.8753 10.0308,4.67628 2.6539,1.801 5.699,3.2745 6.7668,3.2745 1.0678,0 3.534,1.1298 5.4806,2.5106 1.9465,1.3808 6.5391,4.0197 10.2058,5.8643 13.2753,6.6783 19.2744,10.0519 22.7836,12.8122 1.9668,1.5471 4.674,2.8129 6.016,2.8129 1.3419,0 3.0821,1.2 3.8671,2.6667 0.7849,1.4667 2.0698,2.6667 2.8553,2.6667 0.7855,0 6.4226,3.9 12.527,8.6666 6.1045,4.7667 11.7109,8.6667 12.4587,8.6667 0.7479,0 1.8396,0.7558 2.4261,1.6796 0.5864,0.9238 3.4747,3.2387 6.4185,5.1442 2.9437,1.9055 8.7278,6.5497 12.8536,10.3204 4.1257,3.7707 7.8117,6.8558 8.191,6.8558 0.6486,0 45.892,45.4727 51.1624,51.4217 7.8512,8.8621 15.1074,17.795 15.1074,18.5985 0,0.5105 1.5475,2.8148 3.4389,5.1207 1.8914,2.3058 4.5942,5.6925 6.0061,7.5258 1.4119,1.8333 3.98,5.1333 5.7068,7.3333 1.7268,2.2 4.1101,5.8932 5.2962,8.207 1.186,2.3139 2.9205,5.0392 3.8542,6.0563 2.0935,2.2804 3.6285,4.7145 9.9241,15.7367 2.7225,4.7667 5.2854,8.9667 5.6952,9.3334 1.5725,1.4069 4.0785,6.72076 4.0785,8.64846 0,1.11 1.0757,3.0938 2.3905,4.4086 1.3148,1.3148 3.2195,4.4648 4.2328,7 1.0132,2.5352 2.8302,6.1095 4.0376,7.9428 1.2074,1.8334 3.2523,6.1834 4.5442,9.6667 1.2918,3.4833 2.7491,6.3376 3.2385,6.3427 0.4893,0.01 2.3897,4.801 4.223,10.6573 1.8334,5.8563 3.7834,10.6521 4.3334,10.6573 0.55,0.01 1,1.174 1,2.5974 0,1.4233 0.6,2.9588 1.3333,3.412 0.7333,0.4532 1.3392,2.1386 1.3464,3.7453 0.01,1.6068 1.44,5.986 3.184,9.7316 1.7441,3.7456 3.5981,9.3374 4.1199,12.4262 0.5218,3.0887 1.6968,5.9029 2.611,6.2537 0.932,0.3577 2.4365,5.6148 3.4246,11.9671 0.9694,6.231 2.2616,11.6376 2.8716,12.0146 0.61,0.3771 1.1092,2.4501 1.1092,4.6068 0,2.1568 0.5225,3.9213 1.1611,3.9213 0.6387,0 1.579,4.7896 2.0896,10.6434 0.5107,5.8538 1.4304,10.9536 2.0439,11.3327 0.6134,0.3791 1.5454,6.9989 2.071,14.7106 0.5256,7.7117 1.4834,14.3474 2.1284,14.746 0.6449,0.3986 1.1726,4.8503 1.1726,9.8926 0,5.0423 0.6597,10.8569 1.466,12.9213 0.9266,2.3724 1.466,16.0184 1.466,37.0868 0,21.0683 -0.5394,34.7144 -1.466,37.0868 -0.8063,2.0644 -1.466,7.879 -1.466,12.9213 0,5.0423 -0.5277,9.494 -1.1726,9.8926 -0.645,0.3986 -1.6028,7.0343 -2.1284,14.746 -0.5256,7.7117 -1.4471,14.3249 -2.0477,14.6961 -0.6007,0.3713 -1.5134,5.171 -2.0283,10.6661 -0.515,5.4951 -1.4658,9.9911 -2.1129,9.9911 -0.6472,0 -1.1767,2.0645 -1.1767,4.588 0,2.5233 -0.4991,4.8964 -1.1092,5.2735 -0.61,0.377 -1.9022,5.7836 -2.8716,12.0146 -0.9881,6.3522 -2.4926,11.6094 -3.4246,11.9671 -0.9142,0.3508 -2.0797,3.2296 -2.5899,6.3973 -0.5102,3.1678 -1.714,7.0028 -2.675,8.5226 -0.9611,1.5197 -2.4695,5.4197 -3.352,8.6666 -1.6539,6.0846 -2.3129,7.9323 -5.6728,15.9036 -1.0819,2.5667 -3.0622,7.6667 -4.4008,11.3334 -1.3387,3.6666 -2.7647,6.9666 -3.169,7.3333 -1.3238,1.2005 -5.4018,10.7133 -5.4018,12.6008 0,1.014 -0.45,2.0436 -1,2.2881 -0.55,0.2444 -2.5,3.7315 -4.3333,7.7491 -1.8334,4.0176 -4.3834,8.3676 -5.6667,9.6667 -1.2833,1.299 -2.3333,3.2701 -2.3333,4.3801 0,2.2157 -2.3943,6.8571 -5,9.6923 -0.9167,0.9973 -1.6667,2.5776 -1.6667,3.5114 0,0.934 -1.05,2.6543 -2.3333,3.8228 -1.2834,1.1686 -3.8334,4.9936 -5.6667,8.5002 -1.8333,3.5065 -3.7755,6.9934 -4.316,7.7486 -0.5405,0.7554 -3.051,4.1767 -5.579,7.6032 -2.528,3.4266 -5.5232,8.0224 -6.6559,10.213 -1.1328,2.1905 -2.5359,4.187 -3.118,4.4366 -0.5821,0.2495 -4.8615,5.5538 -9.5099,11.7871 -11.0064,14.7593 -20.9226,25.8304 -42.2758,47.1992 -19.6561,19.6705 -39.8627,37.6567 -46.1847,41.1095 -2.3249,1.2697 -4.7369,3.2197 -5.3601,4.3333 -0.6232,1.1136 -1.9982,2.0247 -3.0556,2.0247 -1.0573,0 -2.6718,1.2 -3.5878,2.6666 -0.9159,1.4667 -2.2336,2.6667 -2.9283,2.6667 -0.6946,0 -4.6996,2.7 -8.9,6 -4.2003,3.3 -8.5579,6 -9.6834,6 -1.1255,0 -2.5261,0.8187 -3.1126,1.8193 -0.5864,1.0007 -2.9099,2.7611 -5.1633,3.9122 -2.2534,1.1509 -4.8449,2.9937 -5.7588,4.0949 -0.914,1.1012 -3.4195,2.3883 -5.5679,2.8601 -2.1485,0.4719 -4.657,1.9186 -5.5746,3.2148 -0.9175,1.2963 -4.0683,3.132 -7.0016,4.0795 -2.9334,0.9475 -6.8334,2.7344 -8.6667,3.9711 -3.9107,2.6377 -15.4436,8.0481 -17.1555,8.0481 -0.6516,0 -1.928,0.8957 -2.8365,1.9904 -0.9086,1.0948 -4.1321,2.6505 -7.1633,3.4575 -3.0313,0.8068 -6.4114,2.2518 -7.5114,3.2113 -1.1,0.9595 -4.7,2.5299 -8,3.49 -3.3,0.96 -6.6,2.4115 -7.3333,3.2253 -0.7333,0.8139 -4.6333,2.2792 -8.6667,3.2562 -6.9559,1.6849 -8.3312,2.189 -14.6485,5.3693 -1.4568,0.7333 -3.4879,1.3333 -4.5136,1.3333 -1.8975,0 -13.9899,3.4298 -18.8379,5.3428 -4.3579,1.7199 -19.5045,5.1823 -26.666598,6.0959 -3.6667,0.4677 -7.9009,1.6233 -9.4094,2.568 -1.5084,0.9447 -7.2518,2.1401 -12.763,2.6565 l -10.0204,0.9391 z M 1598.0001,1330.559 c -8.4333,-0.5769 -20.7989,-2.245 -27.4792,-3.707 -15.3143,-3.3517 -34.8821,-9.2857 -35.8652,-10.8762 -0.6176,-0.9994 8.8377,-50.2999 10.6617,-55.5912 0.4008,-1.1624 3.2554,-0.6745 10.2854,1.7579 20.9494,7.2487 36.456,10.0483 59.8242,10.8012 25.3406,0.8165 34.909,-0.8997 39.819,-7.1417 3.7682,-4.7905 3.7753,-15.296 0.013,-20.5785 -3.6568,-5.1353 -15.5687,-11.6249 -36.5931,-19.9357 -35.9929,-14.2278 -45.6736,-19.3896 -57.065,-30.4276 -13.9007,-13.4694 -19.497,-26.7908 -20.5288,-48.8666 -1.1911,-25.4854 4.1122,-40.2642 20.1022,-56.0182 10.7962,-10.6368 23.1462,-17.4457 39.9563,-22.029 27.1116,-7.392 74.188,-5.0283 108.0295,5.4242 4.8616,1.5016 8.8392,3.0456 8.8392,3.4311 0,0.3854 -2.7,12.6218 -6,27.1919 -3.3,14.5702 -6,26.7608 -6,27.0904 0,0.3296 -4.9482,-0.8394 -10.9958,-2.5976 -19.9273,-5.7934 -32.1166,-7.4485 -50.908,-6.9123 -18.7832,0.536 -26.0432,2.7525 -30.6748,9.365 -3.155,4.5044 -2.7522,15.8506 0.7192,20.2639 3.5064,4.4576 18.8952,12.2253 37.1927,18.7735 7.7,2.7556 21.9537,8.8365 31.6749,13.5132 15.0867,7.2579 19.003,9.8211 26.743,17.5035 14.1504,14.045 19.1886,27.6602 19.366,52.3338 0.1106,15.3201 -1.9236,24.4048 -8.1496,36.405 -12.2716,23.6527 -40.8563,37.6694 -83.446,40.9185 -9.6368,0.7352 -19.0216,1.2513 -20.855,1.147 -1.8333,-0.1044 -10.2333,-0.6617 -18.6666,-1.2385 z m 220.6667,-1.2829 c -20.1832,-1.6891 -34.5607,-6.4229 -48.8271,-16.0762 -15.9633,-10.8017 -27.0155,-28.8941 -32.0951,-52.5396 -2.7872,-12.9741 -2.8781,-16.5929 -3.3754,-134.3333 -0.2812,-66.55 -0.2182,-121 0.1401,-121 0.3581,0 15.5401,-2.397 33.7377,-5.3266 18.1975,-2.92956 34.1364,-5.32956 35.4198,-5.33326 2.1668,-0.01 2.3333,2.6573 2.3333,37.32646 v 37.3334 h 43.3333 43.3334 v 30 30 h -43.4018 -43.4016 l 0.4016,55 c 0.3846,52.6503 0.5252,55.3263 3.291,62.6386 4.031,10.6575 7.4677,14.9758 14.7868,18.5803 5.8161,2.8643 7.93,3.1052 26.324,2.9995 16.1133,-0.092 22.0509,-0.6759 30.5537,-3.0018 5.8045,-1.5878 10.8569,-2.5837 11.2276,-2.2131 0.3705,0.3706 2.862,12.6309 5.5365,27.2451 l 4.8627,26.5713 -7.6,2.7711 c -13.6651,4.9825 -28.31,8.1254 -43.9139,9.424 -8.4333,0.7018 -16.5333,1.2001 -18,1.1072 -1.4666,-0.093 -8.0666,-0.6208 -14.6666,-1.1731 z M 1190.0001,953.32704 c 0,-204.59998 -0.2686,-371.99998 -0.597,-371.99998 -0.3283,0 -6.1783,3.5144 -13,7.8097 -38.9324,24.5143 -78.2124,43.8619 -137.0697,67.5147 -29.2573,11.7575 -55.77374,21.3926 -56.51234,20.5346 -1.3236,-1.5376 -66.1442,-168.3137 -65.6214,-168.8365 0.3412,-0.3411 8.6108,-4.0687 18.377,-8.2834 76.66124,-33.0841 139.98044,-67.4055 203.66674,-110.395 45.3948,-30.6424 73.8825,-53.1201 102.2297,-80.6626 l 16.1396,-15.6815 h 76.8603 76.8604 V 809.32704 1325.327 h -110.6667 -110.6666 z m 832.4605,-300.33338 c -0.3398,-0.55 -5.9338,-1 -12.4312,-1 -7.6226,0 -13.1522,-0.6789 -15.588,-1.9139 -2.1253,-1.0776 -11.9312,-2.5897 -22.4413,-3.4603 -11.7468,-0.9732 -19.1639,-2.1703 -20.0079,-3.2293 -0.7377,-0.9255 -5.434,-2.1211 -10.4362,-2.6567 -5.0022,-0.5357 -13.2374,-2.4213 -18.3003,-4.1902 -5.0631,-1.7689 -10.6813,-3.2162 -12.4852,-3.2162 -1.8039,0 -3.6291,-0.5654 -4.0561,-1.2563 -0.4271,-0.691 -3.4624,-1.6591 -6.7454,-2.1514 -3.2829,-0.4923 -5.9689,-1.427 -5.9689,-2.077 0,-0.6501 -1.4645,-1.182 -3.2547,-1.182 -1.79,0 -3.6005,-0.5596 -4.0232,-1.2436 -0.4228,-0.684 -4.1937,-1.9547 -8.3798,-2.8237 -4.1863,-0.8691 -8.2258,-2.3253 -8.9768,-3.236 -0.7511,-0.9107 -4.3655,-2.4242 -8.0322,-3.3634 -3.6666,-0.9391 -7.2868,-2.4603 -8.0445,-3.3804 -0.7579,-0.92 -4.0579,-2.4394 -7.3333,-3.3762 -3.2756,-0.9369 -6.9027,-2.4999 -8.0604,-3.4734 -1.1578,-0.9735 -2.4354,-1.77 -2.839,-1.77 -1.2622,0 -14.6954,-6.594 -23.0561,-11.3176 -4.4,-2.486 -10.1,-5.6065 -12.6667,-6.9345 -2.5666,-1.328 -4.8697,-2.8737 -5.1178,-3.4349 -0.2483,-0.5612 -3.0692,-2.213 -6.269,-3.6707 -3.1997,-1.4576 -7.4136,-4.1292 -9.3641,-5.9369 -1.9505,-1.8077 -4.6795,-3.6463 -6.0644,-4.0859 -1.3849,-0.4395 -2.518,-1.3587 -2.518,-2.0426 0,-0.6839 -0.6564,-1.2435 -1.4588,-1.2435 -0.8023,0 -5.0089,-2.7 -9.3481,-6 -4.3392,-3.3 -8.4187,-6 -9.0654,-6 -0.6466,0 -1.5308,-0.9251 -1.9646,-2.0558 -0.4339,-1.1307 -2.5635,-2.8019 -4.7324,-3.7139 -4.0531,-1.7042 -29.8707,-24.6684 -45.6418,-40.5971 -15.4546,-15.6094 -35.7889,-38.0911 -35.7889,-39.5686 0,-0.7828 -1.2,-2.1726 -2.6667,-3.0885 -1.4666,-0.916 -2.6666,-2.5465 -2.6666,-3.6233 0,-1.0769 -1.5,-2.9408 -3.3334,-4.1421 -1.8333,-1.2012 -3.3333,-2.9715 -3.3333,-3.934 0,-0.9624 -1.5,-2.9297 -3.3333,-4.3718 -1.8334,-1.4421 -3.3578,-3.4357 -3.3875,-4.4301 -0.029,-0.9945 -1.8299,-3.8855 -4,-6.4245 -2.1703,-2.5389 -3.9555,-5.2389 -3.9672,-6 -0.013,-0.761 -1.8747,-3.4837 -4.1399,-6.0503 -2.2652,-2.5667 -5.0021,-6.8704 -6.0822,-9.5638 -1.08,-2.6934 -2.8171,-5.2246 -3.8602,-5.6248 -1.043,-0.4003 -1.913,-1.7966 -1.9334,-3.1029 -0.02,-1.3064 -1.8204,-4.7321 -4,-7.6127 -2.1796,-2.8807 -3.963,-6.2497 -3.963,-7.4869 0,-1.2371 -1.1946,-3.7681 -2.6549,-5.6245 -1.4601,-1.8563 -3.8684,-6.2061 -5.3516,-9.6663 -1.4832,-3.4601 -3.7796,-7.8722 -5.1031,-9.8046 -1.3236,-1.9324 -3.1745,-6.2135 -4.1133,-9.5135 -0.9387,-3.3 -2.4441,-6.9 -3.3452,-8 -0.9012,-1.1 -2.4049,-4.68 -3.3419,-7.9554 -0.9368,-3.2755 -2.4488,-6.5755 -3.36,-7.3334 -0.911,-0.7578 -2.4122,-4.9779 -3.336,-9.3779 -0.9236,-4.4 -2.4218,-8.9 -3.3294,-10 -0.9075,-1.1 -3.035,-7.8712 -4.7276,-15.0471 -1.6926,-7.1759 -3.5859,-13.3613 -4.2072,-13.7454 -0.6214,-0.384 -1.1298,-2.4274 -1.1298,-4.5408 0,-2.1135 -0.5529,-4.1844 -1.2286,-4.602 -0.6759,-0.4177 -1.6458,-4.6531 -2.1554,-9.4121 -0.5097,-4.7589 -1.3937,-8.6526 -1.9646,-8.6526 -0.5708,0 -1.3816,-2.25 -1.8016,-5 -2.3415,-15.3287 -4.7278,-36.55318 -4.7846,-42.55556 -0.04,-4.27566 -0.6974,-7.09962 -1.7318,-7.44444 -2.198,-0.73264 -2.4491,-97.90261 -0.2568,-99.38197 0.7753,-0.52325 2.1541,-10.194497 3.0638,-21.491677 0.9096,-11.29717 2.2252,-21.60772 2.9235,-22.91234 0.6983,-1.30462 1.2695,-4.21148 1.2695,-6.45969 0,-2.24821 0.5301,-4.08765 1.178,-4.08765 0.6478,0 1.5949,-3.89369 2.1046,-8.65264 0.5096,-4.75895 1.4795,-8.99436 2.1554,-9.41202 0.6757,-0.41767 1.2286,-2.52398 1.2286,-4.6807 0,-2.15672 0.2402,-3.92131 0.5335,-3.92131 0.2935,0 13.9348,2.72996 30.3141,6.06658 306.4164,62.41989 579.4531,229.176817 774.8138,473.217017 8.7838,10.9726 15.3292,20.164 14.5452,20.4253 -0.784,0.2614 -4.3012,3.1274 -7.816,6.3689 -3.5148,3.2416 -6.7944,5.9002 -7.288,5.908 -0.4936,0.01 -2.674,1.6642 -4.8455,3.6809 -12.1288,11.2644 -16.6635,15 -18.2087,15 -0.947,0 -2.4414,0.867 -3.3209,1.9268 -0.8795,1.0597 -4.6979,3.9097 -8.4853,6.3333 -3.7875,2.4236 -7.7914,5.1958 -8.8976,6.1604 -3.8622,3.368 -11.3807,8.2417 -16.0112,10.3791 -2.5667,1.1847 -5.1466,2.9895 -5.733,4.0106 -0.5864,1.021 -1.8904,1.8564 -2.8977,1.8564 -1.0072,0 -3.5275,1.4042 -5.6004,3.1203 -2.0729,1.7161 -5.7455,3.7942 -8.1612,4.6179 -2.4159,0.8237 -6.0159,2.5945 -8,3.9352 -1.9843,1.3407 -6.9077,3.8833 -10.9411,5.6502 -4.0333,1.7669 -8.2333,3.8678 -9.3333,4.6686 -1.1,0.8008 -4.4,2.2725 -7.3333,3.2704 -2.9334,0.998 -5.9334,2.5288 -6.6667,3.4018 -0.7333,0.8731 -4.8445,2.3913 -9.1361,3.3738 -4.2915,0.9825 -8.1058,2.5759 -8.476,3.5408 -0.3703,0.9649 -1.5279,1.7544 -2.5726,1.7544 -2.3072,0 -17.6306,4.894 -20.6512,6.5956 -1.193,0.6721 -4.493,1.6412 -7.3333,2.1537 -2.8403,0.5124 -5.7641,1.3716 -6.4975,1.9092 -0.7333,0.5376 -4.0036,1.3857 -7.2672,1.8846 -3.2636,0.4989 -6.5636,1.3758 -7.3333,1.9486 -2.3907,1.779 -11.6713,3.943 -20.9795,4.8918 -5.1704,0.527 -9.1829,1.6107 -9.555,2.5806 -0.3964,1.033 -4.7799,2.0331 -11.4686,2.6165 -8.604,0.7506 -11.1565,1.4723 -12.4324,3.5152 -1.9137,3.0645 -6.6444,3.3657 -8.964,0.5708 -2.1038,-2.535 -5.4282,-2.5511 -8.7452,-0.042 -1.8229,1.3788 -6.169,1.9702 -14.6992,2 -6.6612,0.023 -12.5114,0.4428 -13.0008,0.9321 -1.2365,1.2365 -55.666,1.3429 -56.4276,0.1103 z M 356.61906,636.81556 c -1.9982,-1.8882 -13.7503,-8.6314 -23.2857,-13.3611 -2.9333,-1.4549 -5.6333,-3.0451 -6,-3.5337 -1.1715,-1.5609 -9.1246,-5.2604 -11.309,-5.2604 -1.1594,0 -2.4205,-0.8143 -2.8024,-1.8095 -0.3819,-0.9953 -3.2131,-2.6076 -6.2915,-3.583 -3.0784,-0.9754 -6.6705,-2.8611 -7.9824,-4.1904 -1.3119,-1.3294 -3.0603,-2.4171 -3.8853,-2.4171 -2.4488,0 -11.7294,-4.4229 -11.7294,-5.5899 0,-0.5922 -0.8314,-1.0768 -1.8476,-1.0768 -1.0162,0 -3.5662,-0.8963 -5.6667,-1.9917 -2.1004,-1.0955 -4.7881,-1.9955 -5.9726,-2 -1.1844,0 -3.675,-1.2051 -5.5347,-2.668 -1.8597,-1.4628 -6.5907,-3.3814 -10.5132,-4.2635 -3.9225,-0.8821 -7.5854,-2.3383 -8.1398,-3.2361 -0.5544,-0.8977 -2.8012,-2.0261 -4.9929,-2.5075 l -3.9849,-0.8752 6.2456,-8.8957 c 27.4486,-39.0949 66.9655,-88.8657 100.223,-126.2289 19.8786,-22.3327 78.5178,-80.9719 100.8505,-100.8505 C 569.93606,230.37946 712.40736,144.171 867.33336,86.320323 1013.5687,31.714853 1170.5689,2.7245431 1320.3334,2.6732631 c 31.1171,-0.0107 37.6667,0.30659 37.6667,1.82447 0,1.01055 -1.21,2.66055 -2.6888,3.6666699 -2.2335,1.51951 -2.9483,4.31305 -4.2207,16.49596 -0.9306,8.90946 -2.2304,15.24775 -3.3112,16.14699 -2.3773,1.97782 -2.2586,5.38378 0.2207,6.33518 3.0255,1.161 2.4731,7.17082 -0.8212,8.93389 -2.474,1.324 -2.7179,2.28919 -1.9816,7.8399 0.5761,4.34282 0.1964,7.86956 -1.2093,11.23414 -1.4878,3.56058 -1.6755,5.60234 -0.6852,7.45269 2.1465,4.01063 1.6032,8.76077 -1.3027,11.39054 -2.0872,1.88895 -2.6667,4.106627 -2.6667,10.206657 0,4.30667 0.5966,7.79334 1.3334,7.79334 2.0654,0 1.5728,5.52543 -0.7184,8.05712 -1.8324,2.02476 -4.608,2.1938 -25.9675,1.5814 -17.2081,-0.49338 -24.4433,-0.24784 -25.7968,0.87545 -1.3259,1.10041 -5.6782,1.29424 -14.747,0.65677 -12.0622,-0.84789 -13.0327,-0.7253 -15.5367,1.96244 -3.0796,3.30554 -8.5913,3.79728 -9.7158,0.86682 -1.0602,-2.76276 -9.4076,-2.58646 -12.2528,0.25879 -1.8409,1.84083 -5.3387,2.31971 -18.9034,2.58802 -12.8591,0.25435 -17.1669,0.80196 -18.9414,2.40788 -2.7255,2.4665 -8.2422,2.72334 -10.4778,0.4878 -1.2322,-1.23224 -2.4824,-0.93168 -5.546,1.33334 -4.0945,3.02719 -9.3965,3.92483 -9.3965,1.59084 0,-2.18125 -3.6458,-1.5128 -4.5462,0.83353 -0.6517,1.6985 -1.9458,1.98867 -5.9869,1.34247 -3.7313,-0.59665 -5.6121,-0.27425 -6.8083,1.16712 -0.9774,1.1777 -3.9015,1.9916 -7.1557,1.99175 -11.0204,4.7e-4 -16.1919,0.70012 -17.2358,2.3318 -1.3013,2.03417 -7.1095,2.20623 -8.3207,0.24648 -0.5919,-0.95761 -1.5947,-0.80549 -3.0787,0.46703 -1.2118,1.03904 -8.3239,2.64125 -15.8245,3.56494 -8.1872,1.00824 -14.238,2.41803 -15.1633,3.53296 -0.8468,1.02039 -2.9308,1.85526 -4.6311,1.85526 -1.7002,0 -3.4622,0.6 -3.9154,1.33333 -0.4532,0.73333 -4.0675,1.33333 -8.0318,1.33333 -5.7729,0 -7.4838,0.51578 -8.5944,2.59094 -1.1079,2.07018 -2.7208,2.56056 -8.0245,2.43974 -4.4997,-0.10253 -7.4305,0.56612 -9.0986,2.07572 -1.5422,1.39567 -4.7324,2.22694 -8.5464,2.22694 -4.1795,0 -6.3261,0.62644 -6.8532,2 -0.5321,1.38664 -2.6962,2 -7.0567,2 -4.5409,0 -7.1124,0.77329 -9.2503,2.78178 -2.1093,1.98159 -5.3941,2.99143 -11.4193,3.5106 -4.652,0.40086 -9.05824,1.18122 -9.79154,1.73414 -0.7333,0.55292 -4.023,1.44948 -7.3104,1.99236 -3.2873,0.54288 -6.5874,1.71918 -7.3333,2.61401 -0.746,0.89483 -4.9563,2.38271 -9.3563,3.3064 -4.4,0.92368 -8.9,2.41615 -10,3.31657 -1.1,0.90043 -5.5112,2.44675 -9.8028,3.43624 -4.2915,0.98951 -8.0885,2.54378 -8.4377,3.45395 -0.3493,0.91016 -3.138,2.05731 -6.1973,2.54919 -3.0592,0.49189 -6.8911,1.73669 -8.5153,2.76622 -1.6242,1.02952 -4.1742,1.87187 -5.6666,1.87187 -1.4925,0 -2.7136,0.6 -2.7136,1.33333 0,0.73334 -1.08,1.33334 -2.4,1.33334 -1.32,0 -2.97,0.49885 -3.6667,1.10856 -0.6967,0.6097 -3.9667,1.86889 -7.2667,2.79818 -3.3,0.9293 -6.9,2.43922 -8,3.35536 -1.1,0.91616 -5,2.46112 -8.6666,3.43327 -3.6667,0.97213 -7.1124,2.50251 -7.6573,3.40081 -0.5448,0.89832 -3.999,2.35504 -7.6761,3.23718 -3.677,0.8821 -7.1312,2.2962 -7.6761,3.1425 -0.5448,0.8464 -3.3905,2.3352 -6.3239,3.3087 -8.2384,2.734 -13.4713,5.3053 -15.3129,7.5242 -0.9241,1.1135 -2.7373,2.0246 -4.0293,2.0246 -2.0059,0 -19.1449,8.1295 -25.3244,12.0121 -1.1,0.6911 -4.1,2.1817 -6.6667,3.3125 -2.5667,1.1308 -6.1667,2.9097 -8,3.953 -3.4996,1.9917 -9.9606,5.3449 -20,10.3799 -3.3,1.655 -6.3,3.3238 -6.6667,3.7084 -0.3666,0.3846 -3.6214,2.1846 -7.2329,4 -3.6114,1.8154 -7.6614,4.3507 -9,5.6341 -1.3385,1.2833 -3.2407,2.3333 -4.2271,2.3333 -0.9863,0 -2.8485,1.166 -4.1382,2.5911 -1.2897,1.4251 -4.1113,2.9791 -6.2703,3.4532 -2.1589,0.4742 -4.641,2.0082 -5.5158,3.4089 -0.8747,1.4008 -2.4144,2.5468 -3.4215,2.5468 -2.4371,0 -12.1942,5.5307 -12.1942,6.9122 0,0.5983 -0.6119,1.0878 -1.3598,1.0878 -0.7479,0 -3.8447,1.65 -6.8817,3.6667 -3.037,2.0166 -7.3751,4.7813 -9.6402,6.1437 -2.265,1.3625 -4.5981,3.3125 -5.1845,4.3334 -0.5865,1.0209 -1.8539,1.8562 -2.8167,1.8562 -0.9627,0 -4.0497,1.8273 -6.8601,4.0607 -2.8103,2.2333 -7.0928,5.0017 -9.5166,6.1519 -2.4239,1.1502 -4.407,2.6229 -4.407,3.2727 0,0.6497 -0.6882,1.1814 -1.5294,1.1814 -0.8411,0 -3.9911,2.0067 -7,4.4593 -3.0088,2.4527 -6.9706,5.2403 -8.804,6.1947 -1.8333,0.9544 -3.8131,2.5477 -4.3995,3.5406 -0.5865,0.993 -1.7865,1.8058 -2.6667,1.8064 -0.8802,6e-4 -3.9492,2.0915 -6.82,4.6465 -2.8707,2.555 -6.3207,4.995 -7.6666,5.4222 -1.346,0.4271 -2.4472,1.3208 -2.4472,1.9859 0,0.6651 -1.65,2.0642 -3.6666,3.1092 -2.0167,1.0451 -5.2432,3.3105 -7.1701,5.0343 -1.9269,1.7238 -5.4511,4.6342 -7.8315,6.4675 -2.3804,1.8334 -6.9275,5.4334 -10.1048,8 -3.1772,2.5667 -7.714,6.1667 -10.0818,8 -2.3677,1.8334 -5.7213,4.6834 -7.4523,6.3334 -1.7311,1.65 -3.5701,2.9994 -4.0868,2.9988 -0.5167,-7e-4 -2.7394,1.7729 -4.9394,3.9413 -2.2,2.1684 -11.2,10.3393 -20,18.1575 -8.8,7.8181 -18.4,16.5667 -21.3333,19.4411 -18.3724,18.0037 -27.1182,26.1224 -30.405,28.2251 -2.0561,1.3154 -4.117,3.4066 -4.5799,4.6472 -0.4628,1.2406 -6.7306,8.1348 -13.9283,15.3204 -7.1978,7.1856 -13.0868,13.6016 -13.0868,14.2578 0,0.6561 -1.05,1.9769 -2.3334,2.9352 -2.4916,1.8604 -25.8991,27.5484 -33.6666,36.9466 -2.5667,3.1055 -6.3167,7.2386 -8.3334,9.1846 -2.0166,1.946 -3.6666,4.2908 -3.6666,5.2106 0,0.9198 -1.5,2.6551 -3.3334,3.8564 -1.8333,1.2012 -3.3333,2.7836 -3.3333,3.5163 0,0.7328 -3,4.7953 -6.6667,9.0277 -3.6666,4.2325 -6.6666,8.315 -6.6666,9.0723 0,0.7573 -2.25,3.7743 -5,6.7046 -2.75,2.9303 -7.1,8.365 -9.6667,12.077 -2.5667,3.7121 -6.3071,8.661 -8.3122,10.9975 -2.005,2.3365 -3.9955,5.3508 -4.4232,6.6984 -0.4277,1.3476 -1.3372,2.4502 -2.0211,2.4502 -0.6839,0 -1.2435,0.6491 -1.2435,1.4423 0,0.7933 -2.1723,4.0933 -4.8273,7.3333 -5.1306,6.2614 -10.0316,7.6893 -13.887,4.0463 z"
       id="path195" />
  </g>
</svg>
