<?xml version="1.0" encoding="UTF-8" standalone="no"?>
<!-- Created with Inkscape (http://www.inkscape.org/) -->

<svg
   version="1.1"
   id="svg69"
   width="2666.6667"
   height="2666.6667"
   viewBox="0 0 2666.6667 2666.6667"
   sodipodi:docname="medal_layer1.svg"
   inkscape:version="1.1.2 (0a00cf5339, 2022-02-04)"
   xmlns:inkscape="http://www.inkscape.org/namespaces/inkscape"
   xmlns:sodipodi="http://sodipodi.sourceforge.net/DTD/sodipodi-0.dtd"
   xmlns="http://www.w3.org/2000/svg"
   xmlns:svg="http://www.w3.org/2000/svg">
  <defs
     id="defs73" />
  <sodipodi:namedview
     id="namedview71"
     pagecolor="#505050"
     bordercolor="#eeeeee"
     borderopacity="1"
     inkscape:pageshadow="0"
     inkscape:pageopacity="0"
     inkscape:pagecheckerboard="0"
     showgrid="false"
     inkscape:zoom="0.5088517"
     inkscape:cx="1493.5589"
     inkscape:cy="1256.7512"
     inkscape:window-width="3840"
     inkscape:window-height="2111"
     inkscape:window-x="0"
     inkscape:window-y="49"
     inkscape:window-maximized="1"
     inkscape:current-layer="g75" />
  <g
     inkscape:groupmode="layer"
     inkscape:label="Image"
     id="g75">
    <path
       style="fill:#ffffff;stroke-width:1.33333"
       d="m 1256.6667,2661.9674 c -261.81535,-15.4275 -513.53585,-107.6483 -722.80795,-264.8093 -53.3343,-40.0536 -91.5557,-73.3474 -141.2363,-123.028 -49.6807,-49.6807 -82.9745,-87.902 -123.028,-141.2364 C 111.48295,1922.3561 20.134947,1671.9675 4.6800465,1406.7525 c -1.7034,-29.2309 -1.7034,-117.436 0,-146.6667 C 20.134947,994.8706 111.48295,744.48217 269.59445,533.94453 c 40.0535,-53.3344 73.3473,-91.5558 123.028,-141.2364 49.6806,-49.6807 87.902,-82.9745 141.2363,-123.02801 210.5377,-158.11149 460.9262,-249.459486 726.14135,-264.9143856 29.2307,-1.7034 117.4359,-1.7034 146.6667,0 265.215,15.4548996 515.6036,106.8028956 726.1412,264.9143856 53.3344,40.05351 91.5557,73.34731 141.2364,123.02801 49.6806,49.6806 82.9744,87.902 123.028,141.2364 158.1114,210.53764 249.4594,460.92607 264.9144,726.14127 1.7033,29.2307 1.7033,117.4358 0,146.6667 -15.455,265.215 -106.803,515.6036 -264.9144,726.1412 -40.0536,53.3344 -73.3474,91.5557 -123.028,141.2364 -49.6807,49.6806 -87.902,82.9744 -141.2364,123.028 -210.5376,158.1114 -460.9262,249.4594 -726.1412,264.9144 -26.1748,1.5253 -123.4885,1.457 -150.0001,-0.1054 z"
       id="path545" />
  </g>
</svg>
