<?xml version="1.0" encoding="UTF-8" standalone="no"?>
<!-- Created with Inkscape (http://www.inkscape.org/) -->

<svg
   xmlns:dc="http://purl.org/dc/elements/1.1/"
   xmlns:cc="http://creativecommons.org/ns#"
   xmlns:rdf="http://www.w3.org/1999/02/22-rdf-syntax-ns#"
   xmlns:svg="http://www.w3.org/2000/svg"
   xmlns="http://www.w3.org/2000/svg"
   xmlns:sodipodi="http://sodipodi.sourceforge.net/DTD/sodipodi-0.dtd"
   xmlns:inkscape="http://www.inkscape.org/namespaces/inkscape"
   version="1.1"
   id="svg876"
   width="2666.6667"
   height="2666.6667"
   viewBox="0 0 2666.6667 2666.6667"
   sodipodi:docname="medal_madrid2024_3rd.svg"
   inkscape:version="0.92.5 (2060ec1f9f, 2020-04-08)">
  <metadata
     id="metadata882">
    <rdf:RDF>
      <cc:Work
         rdf:about="">
        <dc:format>image/svg+xml</dc:format>
        <dc:type
           rdf:resource="http://purl.org/dc/dcmitype/StillImage" />
        <dc:title></dc:title>
      </cc:Work>
    </rdf:RDF>
  </metadata>
  <defs
     id="defs880" />
  <sodipodi:namedview
     pagecolor="#ffffff"
     bordercolor="#666666"
     borderopacity="1"
     objecttolerance="10"
     gridtolerance="10"
     guidetolerance="10"
     inkscape:pageopacity="0"
     inkscape:pageshadow="2"
     inkscape:window-width="2560"
     inkscape:window-height="1394"
     id="namedview878"
     showgrid="false"
     inkscape:zoom="0.43799999"
     inkscape:cx="1333.3334"
     inkscape:cy="1333.3334"
     inkscape:window-x="0"
     inkscape:window-y="46"
     inkscape:window-maximized="0"
     inkscape:current-layer="svg876" />
  <path
     style="fill:#000000;stroke-width:1.33333337"
     d="m 1429.3334,2651.5506 c 0,-3.6108 -0.6628,-6.2159 -1.6667,-6.5506 -2.3153,-0.7716 -2.4389,-124.9841 -0.1267,-127.7948 0.8468,-1.0296 1.8848,-5.4718 2.3067,-9.8718 1.8256,-19.0388 2.4612,-23.3334 3.4539,-23.3334 0.5792,0 1.4745,-4.496 1.9894,-9.991 0.515,-5.4952 1.4855,-10.3306 2.1567,-10.7454 0.6712,-0.4149 1.2204,-3.1189 1.2204,-6.0089 0,-2.8901 0.4709,-5.2547 1.0465,-5.2547 0.9516,0 3.1796,-8.5125 5.1474,-19.6666 0.4205,-2.3834 1.2989,-4.3334 1.952,-4.3334 0.653,0 1.1874,-1.4645 1.1874,-3.2546 0,-1.79 0.6,-3.6255 1.3334,-4.0787 0.7333,-0.4532 1.3333,-2.2532 1.3333,-4 0,-1.7468 0.5308,-3.504 1.1795,-3.9049 0.6486,-0.401 1.5722,-3.3486 2.0524,-6.5503 0.4801,-3.2016 1.9598,-6.9879 3.2884,-8.4137 1.3284,-1.4259 2.8292,-4.9638 3.3349,-7.8619 1.1493,-6.5839 3.4684,-12.6025 4.856,-12.6025 0.58,0 1.4713,-2.468 1.9809,-5.4844 0.5098,-3.0166 2.3624,-7.6003 4.1172,-10.1862 1.755,-2.5858 3.1907,-5.4444 3.1907,-6.3522 0,-0.9079 0.8411,-2.3488 1.8692,-3.202 1.028,-0.8532 2.2679,-3.14 2.7553,-5.0819 0.4874,-1.9419 2.0063,-5.1039 3.3755,-7.0267 1.3692,-1.9228 2.9205,-5.2593 3.4475,-7.4146 0.5269,-2.1552 2.3668,-5.6147 4.0886,-7.6876 1.7218,-2.073 3.1306,-4.6418 3.1306,-5.7086 0,-1.0668 0.8142,-2.252 1.8096,-2.634 0.9952,-0.3818 2.5912,-3.063 3.5466,-5.9581 0.9555,-2.8951 2.2131,-5.2637 2.7946,-5.2637 0.5816,0 2.028,-2.0455 3.2144,-4.5455 1.1862,-2.5 3.3144,-5.5929 4.7292,-6.8733 1.4148,-1.2803 2.5722,-3.4138 2.5722,-4.741 0,-1.3272 1.2,-3.0553 2.6667,-3.8402 1.4667,-0.785 2.6667,-2.272 2.6667,-3.3047 0,-1.0325 1.0801,-2.6615 2.4004,-3.6197 1.3202,-0.9583 3.1752,-3.6492 4.1221,-5.9798 0.9468,-2.3306 2.5667,-4.5618 3.5996,-4.9582 1.0328,-0.3963 1.8779,-1.6256 1.8779,-2.7318 0,-1.106 1.5,-2.9938 3.3333,-4.1952 1.8333,-1.2012 3.3333,-2.9452 3.3333,-3.8754 0,-0.9304 2.2791,-3.7506 5.0646,-6.2671 2.7854,-2.5165 6.096,-6.7492 7.3568,-9.4061 1.2606,-2.6568 3.4817,-5.208 4.9354,-5.6695 1.4538,-0.4613 2.6432,-1.5971 2.6432,-2.5237 0,-0.9267 1.5,-2.4876 3.3334,-3.4688 1.8333,-0.9812 3.3333,-2.6122 3.3333,-3.6244 0,-2.4334 28.5663,-31.0423 30.996,-31.0423 1.0377,0 2.6895,-1.5 3.6707,-3.3333 0.9812,-1.8334 2.4812,-3.3334 3.3333,-3.3334 0.8521,0 2.3521,-1.5 3.3333,-3.3333 0.9812,-1.8333 2.5826,-3.3333 3.5587,-3.3333 0.976,0 1.7747,-0.6 1.7747,-1.3334 0,-0.8669 -18.889,-1.3333 -54,-1.3333 h -54 v 17.5455 17.5453 l -150.3334,-0.8692 c -82.6833,-0.4781 -150.4649,-0.8736 -150.6256,-0.8788 -0.1608,0 -0.4608,-7.3595 -0.6667,-16.3428 l -0.3748,-16.3333 -26.6666,-0.2175 c -14.6667,-0.12 -34.8998,-0.2697 -44.9624,-0.3333 l -18.2957,-0.1159 -0.371,-18.3333 -0.3709,-18.3334 -36.3334,-0.3548 -36.3333,-0.3546 v -49.9907 -49.9905 l -68.99999,0.3453 -69,0.3453 -0.36481,23 -0.36483,23 -131.63517,0.1488 c -72.39936,0.081 -152.20873,0.028 -177.35415,-0.12 -34.82382,-0.2046 -46.19519,0.1267 -47.71731,1.3899 -1.65596,1.3743 -1.97007,5.9067 -1.83329,26.4532 l 0.16505,24.7947 -19.44775,0.3689 -19.44774,0.3691 v 71.6789 71.6791 l 5.5757,4.2853 c 3.06666,2.3569 6.02622,4.2853 6.57683,4.2853 0.5506,0 1.38196,1.2 1.84747,2.6667 0.4655,1.4667 1.5616,2.6667 2.43578,2.6667 0.87419,0 2.33884,1.2 3.25479,2.6666 0.91595,1.4667 2.31955,2.6667 3.11911,2.6667 0.79957,0 3.13521,1.8 5.19032,4 2.0551,2.2 4.99584,4 6.53494,4 1.53911,0 2.79839,0.62 2.79839,1.3777 0,1.7308 8.80036,10.6223 10.51343,10.6223 0.69793,0 3.86793,2.386 7.04444,5.3021 3.1765,2.9163 7.4712,6.837 9.54376,8.7127 2.07256,1.8757 6.96868,5.2167 10.88025,7.4241 3.91159,2.2076 7.44703,4.887 7.85653,5.9542 0.40951,1.067 1.64228,1.9402 2.7395,1.9402 1.09721,0 2.63716,1.2 3.42209,2.6667 0.78493,1.4667 2.58493,2.6667 4,2.6667 1.41507,0 3.18129,1.1369 3.92495,2.5264 0.74365,1.3896 3.11828,3.1421 5.27693,3.8946 2.15867,0.7526 4.59244,2.6156 5.4084,4.1403 0.81595,1.5245 2.28896,2.772 3.27337,2.772 0.9844,0 2.56554,0.9347 3.51362,2.0771 0.94808,1.1424 3.72154,2.9117 6.16325,3.9318 2.44172,1.0203 4.43948,2.4776 4.43948,3.2386 0,0.7608 1.95,2.1985 4.33333,3.1948 2.38334,0.9962 5.1568,2.8042 6.16326,4.0178 1.00646,1.2136 3.01264,2.2066 4.45816,2.2066 1.5069,0 2.92576,1.1377 3.32558,2.6666 0.38355,1.4667 1.79335,2.6667 3.13291,2.6667 1.33955,0 3.27305,1.1957 4.29665,2.6571 1.02362,1.4614 3.8092,3.0468 6.1902,3.5229 2.38102,0.4763 4.63607,1.6657 5.01126,2.6435 0.74234,1.9345 7.79079,5.8432 10.53699,5.8432 0.93792,0 2.08616,1.2 2.55166,2.6666 0.46551,1.4667 1.9599,2.6667 3.32088,2.6667 1.36099,0 4.25718,1.5 6.43596,3.3333 2.1788,1.8334 4.92483,3.3334 6.10231,3.3334 1.17747,0 2.14085,0.5089 2.14085,1.1308 0,0.622 2.4,2.213 5.33334,3.5358 2.93333,1.3228 5.33333,2.9268 5.33333,3.5644 0,0.6378 1.65,1.831 3.66667,2.6516 9.6727,3.9363 12.33333,5.3414 12.33333,6.5132 0,0.699 1.15,1.2708 2.55556,1.2708 1.40555,0 2.75555,0.45 3,1 0.60411,1.3592 8.48863,5.6667 10.37259,5.6667 0.83417,0 2.77262,1.1701 4.30766,2.6001 2.65658,2.4751 5.63396,4.0599 15.43086,8.2136 2.38333,1.0104 4.33333,2.1587 4.33333,2.5516 0,0.3928 3,1.8784 6.66667,3.3014 3.66666,1.4229 6.66666,3.0549 6.66666,3.6268 0,0.572 0.93183,1.0398 2.07074,1.0398 1.1389,0 4.27818,1.5 6.97618,3.3334 2.69799,1.8333 5.54654,3.3333 6.33011,3.3333 2.10173,0 8.60049,3.1899 8.61257,4.2273 0.005,0.4918 1.80352,1.288 3.99511,1.7694 2.1916,0.4813 4.327,1.429 4.74536,2.1058 0.41836,0.677 1.92524,1.2308 3.34863,1.2308 1.42338,0 2.58797,0.5251 2.58797,1.1667 0,0.6417 1.72768,1.5123 3.83928,1.9345 2.11161,0.4223 4.76876,1.6974 5.90477,2.8334 1.136,1.136 2.98798,2.0654 4.11547,2.0654 2.61385,0 11.47381,4.1922 11.47381,5.429 0,0.5142 2.68602,1.3377 5.96892,1.83 3.28291,0.4924 6.31832,1.4605 6.74536,2.1514 0.42704,0.691 1.94103,1.2563 3.36442,1.2563 1.42338,0 2.58797,0.5332 2.58797,1.1849 0,0.6518 2.08369,1.5759 4.63041,2.0536 2.54674,0.4778 5.09674,1.6307 5.66667,2.5622 0.56995,0.9313 4.63625,2.5005 9.03625,3.4872 4.4,0.9865 8.62627,2.5458 9.39171,3.465 0.76544,0.9192 5.16821,2.4143 9.78393,3.3224 4.61572,0.9082 8.68056,2.4024 9.03296,3.3208 0.3524,0.9184 4.54804,2.407 9.32363,3.308 4.7756,0.9012 8.98765,2.4326 9.36011,3.4032 0.37245,0.9706 3.33312,2.163 6.57925,2.6498 3.24615,0.4868 6.343,1.6416 6.88191,2.5661 1.05076,1.8027 12.66732,4.6768 18.90281,4.6768 2.08546,0 4.11326,0.8379 4.50623,1.862 0.42507,1.1077 4.66877,2.5637 10.47599,3.5945 5.36881,0.9528 10.50274,2.4634 11.40873,3.3567 1.74988,1.7253 13.04971,4.5201 18.27572,4.5201 1.71878,0 3.45758,0.8667 3.86408,1.9259 0.4707,1.2265 3.6693,2.2573 8.8093,2.8388 4.4387,0.5023 8.0703,1.3725 8.0703,1.9341 0,0.5616 2.25,1.3572 5,1.7679 18.6926,2.7919 25.1642,4.1949 26.3333,5.7096 0.7406,0.9593 6.9651,2.4293 14,3.3064 6.9667,0.8684 13.0551,2.1759 13.5299,2.9055 1.0376,1.5946 11.4175,3.4225 20.0581,3.5324 3.4401,0.044 6.5863,0.6161 6.9917,1.272 0.7786,1.2598 3.8295,1.8433 22.087,4.2241 6.2333,0.8129 12.3752,2.0267 13.6486,2.6973 1.2734,0.6707 5.288,1.2194 8.9213,1.2194 3.6333,0 6.9769,0.6 7.4301,1.3333 0.4532,0.7333 4.9532,1.3333 10,1.3333 5.0468,0 9.4911,0.5099 9.8763,1.1332 0.3852,0.6232 5.8743,1.5308 12.198,2.017 16.6964,1.2833 16.5913,1.1826 16.5978,15.8968 0,6.7574 0.3976,19.9769 0.877,29.3764 l 0.8716,17.09 -8.5437,-0.8864 c -96.4488,-10.0071 -195.4703,-31.2611 -285.87699,-61.3607 C 740.93792,2534.981 582.97735,2443.2958 444.66667,2320.1839 422.33402,2300.3052 363.69475,2241.666 343.8162,2219.3334 274.10167,2141.0122 214.65854,2056.6727 164.83062,1965.3839 c -7.79018,-14.2723 -14.16395,-26.4223 -14.16395,-27 0,-0.5779 0.9,-1.0505 2,-1.0505 1.1,0 2,-0.5179 2,-1.1508 0,-0.633 3.45,-2.2254 7.66667,-3.5387 4.21666,-1.3132 7.96666,-2.7503 8.33333,-3.1935 1.01823,-1.2305 13.69073,-5.4644 16.33333,-5.4569 1.28334,0 2.33334,-0.4815 2.33334,-1.078 0,-0.5964 2.1,-1.9084 4.66666,-2.9155 2.56667,-1.007 4.66667,-2.2509 4.66667,-2.7641 0,-0.5132 2.75331,-1.346 6.11844,-1.8507 6.73845,-1.0104 11.21489,1.4463 11.21489,6.1548 0,1.353 0.58243,2.46 1.29427,2.46 0.71185,0 2.86849,3.15 4.79253,7 6.21223,12.4307 9.68566,18.6992 10.81904,19.5254 0.60962,0.4444 1.9449,3.208 2.96728,6.1413 1.0224,2.9333 2.9692,6.1173 4.32623,7.0756 1.35703,0.9583 2.46732,2.6636 2.46732,3.7897 0,1.126 1.2,3.573 2.66667,5.4375 1.46666,1.8647 2.66666,4.4688 2.66666,5.7872 0,1.3183 1.12855,2.7552 2.5079,3.1929 1.39218,0.4419 2.8512,2.5126 3.2796,4.6546 0.42444,2.1221 1.91838,4.9544 3.31986,6.2938 1.4015,1.3395 3.34622,4.6854 4.32159,7.4354 0.97539,2.75 2.24484,5 2.82101,5 0.57618,0 1.92503,2.1 2.99744,4.6666 1.07243,2.5667 2.54164,4.6667 3.26494,4.6667 0.72328,0 2.07442,2.1 3.00254,4.6667 0.92812,2.5666 2.15196,4.6666 2.71964,4.6666 0.5677,0 2.21746,2.6019 3.66615,5.782 1.44869,3.18 3.56369,6.5535 4.7,7.4966 1.13629,0.943 2.066,2.4769 2.066,3.4088 0,0.9317 0.92845,2.0502 2.06323,2.4857 1.13477,0.4355 2.69348,2.5997 3.46377,4.8093 0.77029,2.2098 2.18315,4.0176 3.13967,4.0176 0.95652,0 2.36212,1.7871 3.12354,3.9714 1.406,4.0332 2.74506,6.0061 7.5709,11.1542 1.48194,1.581 5.0561,6.766 7.94258,11.5224 2.88647,4.7564 6.92398,10.2862 8.97223,12.2884 2.04824,2.0023 3.72408,4.4592 3.72408,5.46 0,1.0008 1.396,2.5668 3.10223,3.4799 1.70622,0.9132 3.84492,3.7141 4.75265,6.2244 0.90772,2.5104 2.81172,5.1857 4.23109,5.9453 1.41939,0.7596 2.5807,2.0303 2.5807,2.8236 0,0.7934 2.4,3.7716 5.33333,6.6183 2.93333,2.8467 5.33333,5.8401 5.33333,6.6521 0,0.8119 1.46454,2.6283 3.25452,4.0363 1.78999,1.408 3.676,3.8943 4.19115,5.5252 0.51513,1.6308 3.19187,5.1575 5.94828,7.8371 2.75643,2.6794 5.41084,6.1294 5.89872,7.6666 0.48787,1.5371 1.36789,2.7948 1.95561,2.7948 1.7909,0 16.08506,14.7771 16.08506,16.6286 0,0.9522 1.45449,2.6844 3.23221,3.8492 1.77771,1.1649 3.62091,3.3425 4.09599,4.8394 0.47508,1.4968 1.42084,2.3772 2.10168,1.9566 0.75762,-0.4683 1.17893,-152.685 1.08594,-392.3528 -0.14185,-365.5818 -0.29684,-390.986 -2.33388,-382.5296 -1.20006,4.9818 -2.86193,9.4818 -3.69302,10 -0.83111,0.5181 -2.23158,4.4301 -3.11216,8.6936 -0.88059,4.2633 -2.38852,8.0537 -3.35098,8.423 -0.96245,0.3692 -2.13978,3.2714 -2.6163,6.449 -0.47651,3.1776 -2.00175,7.0866 -3.3894,8.6865 -1.38767,1.6 -2.93806,4.8097 -3.44531,7.1328 -0.50725,2.3231 -2.04409,5.6547 -3.4152,7.4036 -1.37109,1.7488 -2.49291,4.2179 -2.49291,5.4868 0,1.2689 -1.25097,3.8973 -2.77993,5.8412 -1.52896,1.9437 -3.39593,5.7651 -4.14883,8.4919 -0.75289,2.7266 -2.50193,5.7513 -3.88673,6.7212 -1.38481,0.97 -2.51784,2.9296 -2.51784,4.3546 0,1.4251 -0.45,2.598 -1,2.6064 -0.55,0.013 -2.14653,2.4084 -3.54784,5.3334 -1.40132,2.9249 -2.98616,5.318 -3.52189,5.318 -0.53574,0 -1.93111,2.3918 -3.10083,5.3153 -1.16973,2.9235 -3.18488,6.4804 -4.47811,7.9044 -4.67742,5.1504 -5.68466,6.7036 -5.68466,8.7659 0,1.154 -0.9,2.4434 -2,2.8656 -1.1,0.4221 -2,1.7589 -2,2.9706 0,1.2119 -1.2,2.9528 -2.66667,3.8687 -1.46667,0.916 -2.66667,2.4913 -2.66667,3.5008 0,1.0093 -1.5,2.8181 -3.33333,4.0193 -1.83333,1.2014 -3.33333,2.9984 -3.33333,3.9936 0,0.9951 -4.2,6.6698 -9.33334,12.6102 -5.13333,5.9405 -9.33333,11.1308 -9.33333,11.5341 0,0.4035 -3.6,4.3447 -8,8.7583 -4.4,4.4137 -8,8.7581 -8,9.6544 0,1.971 -15.23337,16.9054 -17.24393,16.9054 -0.78251,0 -1.42274,0.6894 -1.42274,1.532 0,1.9288 -7.8221,9.5882 -13.02005,12.7492 -2.16279,1.3154 -6.86805,5.2391 -10.45615,8.7196 -12.25453,11.887 -18.17816,16.9992 -19.69718,16.9992 -0.83516,0 -2.25612,1.1811 -3.15766,2.6247 -0.90154,1.4436 -3.59586,3.6249 -5.9874,4.8473 -2.39152,1.2224 -4.82804,3.0414 -5.41448,4.042 -0.58644,1.0007 -1.70722,1.8194 -2.49065,1.8194 -1.27909,0 -7.56871,4.7734 -13.22161,10.0345 -1.16152,1.0811 -3.0775,1.9655 -4.25772,1.9655 -1.18024,0 -2.92991,1.05 -3.88816,2.3333 -0.95824,1.2833 -3.99227,3.3736 -6.74227,4.6451 -2.75,1.2714 -5,2.9214 -5,3.6666 0,0.7452 -0.99336,1.355 -2.20748,1.355 -1.21411,0 -4.17408,1.5 -6.57771,3.3333 -2.40362,1.8333 -5.20337,3.3333 -6.22166,3.3333 -1.0183,0 -4.20832,1.7834 -7.08896,3.963 -2.88064,2.1796 -6.22334,3.9796 -7.4282,4 -1.20488,0.02 -2.50378,0.8529 -2.88644,1.8501 -0.38267,0.9973 -3.44687,2.5059 -6.80932,3.3525 -3.36246,0.8467 -6.11357,2.114 -6.11357,2.8164 0,0.7023 -3.45,2.2708 -7.66666,3.4858 -4.21667,1.2148 -8.12676,2.9964 -8.68908,3.9589 -0.56233,0.9625 -3.7214,2.1547 -7.02016,2.6495 -3.29877,0.4946 -6.485213,1.7704 -7.080998,2.835 -0.595785,1.0646 -3.721951,2.5286 -6.947034,3.2531 -3.225081,0.7247 -6.252782,1.9469 -6.728224,2.7163 -0.998702,1.6158 -17.154578,5.6105 -18.252192,4.5129 -1.613271,-1.6133 -15.499613,-50.0336 -23.533824,-82.0601 -20.6008,-82.1204 -33.049597,-163.873 -38.0685009,-250 -1.7033708,-29.2308 -1.7033708,-117.436 0,-146.6667 C 14.653263,1096.9604 50.977909,943.85048 114.0051,798.66668 c 12.82474,-29.54194 15.348,-34.29986 16.80731,-31.69223 0.65398,1.16861 3.58874,2.53017 6.52166,3.02568 2.93293,0.49552 5.3326,1.46305 5.3326,2.15008 0,0.68703 1.35,1.78251 3,2.4344 1.65,0.65189 5.06657,2.73704 7.59237,4.63367 2.5258,1.89661 5.46918,3.4484 6.54082,3.4484 1.07164,0 3.91504,1.5 6.31866,3.33333 2.40363,1.83333 5.31026,3.33333 6.45919,3.33333 1.14893,0 2.08896,0.60971 2.08896,1.35491 0,0.7452 2.25,2.3952 5,3.66667 2.75,1.27146 5.78403,3.36176 6.74227,4.64509 0.95825,1.28333 2.70792,2.33333 3.88816,2.33333 1.18022,0 3.0962,0.88446 4.25772,1.96546 4.91804,4.57712 11.60937,9.64444 13.77852,10.43441 1.28333,0.46737 2.33333,1.4686 2.33333,2.22496 0,0.75635 1.08229,1.37517 2.40511,1.37517 1.32281,0 4.44052,2.1 6.92822,4.66667 2.48771,2.56667 4.97654,4.66667 5.53071,4.66667 0.55417,0 3.04709,2.1 5.5398,4.66666 2.49272,2.56667 5.57777,4.66667 6.85568,4.66667 1.27791,0 2.64931,1.24603 3.04756,2.76896 0.39827,1.52293 2.14209,3.30808 3.87517,3.967 1.7331,0.65892 3.15108,2.07245 3.15108,3.14119 0,1.06873 1.34094,2.36874 2.97986,2.88892 4.30792,1.36728 35.68681,32.54442 35.68681,35.45737 0,1.34377 0.91287,2.44323 2.02859,2.44323 1.11572,0 2.71202,1.5 3.54734,3.33333 0.83534,1.83333 2.33732,3.33333 3.33776,3.33333 1.00044,0 2.38928,1.5 3.08631,3.33334 0.69703,1.83333 1.88219,3.33333 2.63367,3.33333 0.75148,0 1.36633,0.82359 1.36633,1.83019 0,1.0066 2.7,4.31896 6,7.3608 3.3,3.04182 6,6.01365 6,6.60405 0,0.5904 1.5,2.48263 3.33333,4.20496 1.83334,1.72233 3.33334,3.86393 3.33334,4.75913 0,0.8952 1.48964,3.04062 3.31029,4.76759 1.82067,1.72697 3.32067,3.79696 3.33333,4.59996 0.0133,0.80302 1.22304,2.546 2.68971,3.87332 1.46667,1.32732 2.66667,3.22031 2.66667,4.20666 0,0.98633 0.55957,1.79334 1.24348,1.79334 0.68392,0 1.65733,1.30391 2.16314,2.89759 0.50582,1.59367 1.4372,3.54367 2.06975,4.33333 5.74995,7.1781 7.67713,10.03246 9.29656,13.76908 1.03292,2.38334 2.23504,4.33334 2.67137,4.33334 0.43634,0 1.93987,2.39312 3.34119,5.31804 1.40131,2.92492 2.99784,5.32492 3.54784,5.33333 0.55,0.008 1,1.18127 1,2.60636 0,1.42508 1.13303,3.38465 2.51784,4.35461 1.3848,0.96996 3.13384,3.99455 3.88673,6.72131 0.7529,2.72676 2.61987,6.5481 4.14883,8.4919 1.52896,1.9437 2.77993,4.5366 2.77993,5.7619 0,1.2253 1.5,4.2609 3.33334,6.7459 1.83333,2.4849 3.33333,5.8097 3.33333,7.3883 0,1.5787 1.15376,4.2006 2.56392,5.8265 1.41016,1.626 2.96996,5.3596 3.46621,8.2969 0.49627,2.9373 1.68232,5.6399 2.63568,6.0058 0.95335,0.3658 2.45374,4.4829 3.33419,9.1491 0.88045,4.6662 2.36356,8.7767 3.2958,9.1345 0.93224,0.3577 2.46577,4.7354 3.40783,9.7281 0.94206,4.9928 2.4256,9.7905 3.29673,10.6616 0.87114,0.8712 2.37458,6.2846 3.34098,12.0299 0.96641,5.7453 2.48081,10.8815 3.36536,11.4138 0.88453,0.5323 2.03021,4.6975 2.54594,9.2559 0.51572,4.5585 1.75186,8.9229 2.74694,9.6988 1.19038,0.9282 2.39108,7.5678 3.51025,19.4108 0.93556,9.9 2.41708,18.7313 3.29228,19.6252 2.43825,2.4904 3.86637,31.0806 3.84833,77.0414 -0.0181,46.2424 -1.4334,74.5749 -3.84833,77.0415 -0.8752,0.8939 -2.35672,9.7252 -3.29228,19.6252 -1.11917,11.8431 -2.31987,18.4826 -3.51025,19.4108 -0.99508,0.7759 -2.22958,5.1259 -2.7433,9.6667 l -0.93405,8.2559 h 12.17221 12.17223 V 1356.6667 1340 h 17.33333 17.33334 l 0.2396,12.3334 c 0.13173,6.7833 0.10573,14.2833 -0.0577,16.6666 l -0.29729,4.3334 h 16.05771 16.0577 v 59.8445 59.8444 l 3,0.804 c 1.65,0.4423 10.35,0.8121 19.33334,0.8221 l 16.33334,0.018 v 17.8573 c 0,15.0584 0.33078,17.9843 2.11042,18.6672 2.67277,1.0256 317.23387,0.9767 319.90881,-0.049 1.61554,-0.62 1.98078,-4.0485 1.98078,-18.5941 v -17.8342 l 33,-0.3565 33,-0.3567 0.36718,-21 0.3672,-21 h 53.03281 c 39.46989,0 53.44199,-0.4092 54.63279,-1.6 1.0778,-1.0777 1.6,-7.1704 1.6,-18.6666 v -17.0667 h 78 78 v 18.6667 18.6666 H 1220 h 25.3333 l 0.1115,6.3334 c 0.061,3.4833 0.016,13.0833 -0.099,21.3333 l -0.2108,15 h 18.766 18.766 l 0.057,39 c 0.032,21.45 0.032,56.8477 5e-4,78.6616 l -0.057,39.6616 126.9995,-0.3283 126.9996,-0.3282 0.3771,-15 0.3769,-15 h 39.9564 39.9563 v -11.9804 -11.9806 l 40.3333,-0.3528 40.3333,-0.3529 0.3834,-12.3333 0.3834,-12.3334 H 1715.3834 1732 v 24 24 h -15.8333 -15.8333 l -0.8334,4.1667 c -0.4582,2.2917 -0.8333,9.1917 -0.8333,15.3333 v 11.1667 h -17.8445 c -17.3783,0 -17.8655,0.079 -18.6484,3 -0.4423,1.65 -0.8122,11.55 -0.8222,22 -0.019,18.7821 -0.052,19.0011 -3.0182,19.0912 -1.65,0.051 -11.55,0.089 -22,0.088 h -19 v 21.2459 21.246 H 1598 1578.6667 v 98.6666 98.6667 h 19.2923 19.2922 l 0.3744,16.3333 0.3744,16.3334 21.6303,0.3661 21.6303,0.3663 0.3697,18.967 0.3697,18.9672 18.9636,0.3698 18.9636,0.3697 0.3698,18.9636 0.3697,18.9636 15.6667,0.3756 15.6666,0.3757 v 21.291 21.291 h -34.7085 c -27.0013,0 -34.8541,0.3796 -35.3645,1.7096 -0.3608,0.9403 -0.492,12.5924 -0.2915,25.8936 l 0.3645,24.1842 5.6667,-2.5991 c 3.1167,-1.4295 5.6667,-3.1351 5.6667,-3.7903 0,-0.6552 2.25,-1.9296 5,-2.8322 2.75,-0.9026 5.784,-2.7491 6.7422,-4.1034 0.9583,-1.3542 2.8274,-2.4624 4.1535,-2.4624 1.3263,0 3.8423,-1.1128 5.5911,-2.4728 1.7489,-1.36 5.3818,-3.1906 8.0732,-4.0681 2.6913,-0.8775 5.566,-2.4059 6.388,-3.3964 0.8221,-0.9905 3.0728,-2.1971 5.0014,-2.6812 1.9287,-0.484 4.9851,-2.0429 6.7918,-3.4641 1.8068,-1.4212 4.0232,-2.584 4.9254,-2.584 0.9023,0 3.1406,-1.18 4.974,-2.6222 1.8335,-1.4422 5.8102,-3.0182 8.8372,-3.5022 3.0271,-0.4842 6.785,-1.9915 8.3511,-3.3496 1.566,-1.3583 4.8701,-2.849 7.3425,-3.3128 2.4724,-0.4639 4.4952,-1.3766 4.4952,-2.0283 0,-0.6517 1.35,-1.2061 3,-1.2321 1.65,-0.027 4.5,-0.9048 6.3334,-1.9528 1.8333,-1.048 4.6833,-1.9268 6.3333,-1.9528 1.65,-0.025 3,-0.6472 3,-1.3806 0,-0.7333 1.1645,-1.3333 2.588,-1.3333 1.4233,0 2.9108,-0.5224 3.3055,-1.1611 0.3946,-0.6385 3.7361,-1.451 7.4256,-1.8054 3.6893,-0.3546 7.7518,-1.5675 9.0277,-2.6954 1.276,-1.1278 5.4692,-2.4716 9.3184,-2.986 3.8492,-0.5144 7.3345,-1.479 7.7453,-2.1437 0.4108,-0.6647 2.551,-1.2084 4.7559,-1.2084 2.2049,0 5.1123,-0.5905 6.4608,-1.3123 1.3485,-0.7216 6.7091,-1.7078 11.9124,-2.1914 5.2032,-0.4835 9.4604,-1.3931 9.4604,-2.0211 0,-0.628 2.9645,-1.1419 6.588,-1.1419 3.6233,0 6.9252,-0.5457 7.3375,-1.2126 0.4122,-0.6671 8.5603,-1.6447 18.1067,-2.1727 9.5465,-0.528 17.68,-1.4823 18.0745,-2.1207 0.9279,-1.5012 97.5105,-1.5253 98.4381,-0.024 0.3862,0.6248 8.3716,1.5598 17.7454,2.0776 9.3737,0.5178 17.6132,1.5066 18.3098,2.1972 0.6967,0.6907 3.8467,1.2558 7,1.2558 3.1534,0 5.7334,0.4848 5.7334,1.0774 0,0.5926 4.95,1.76 11,2.5943 16.6818,2.3003 21,3.1887 21,4.3205 0,0.5686 3.3004,1.4462 7.3341,1.9502 4.0337,0.504 8.1032,1.6854 9.0432,2.6254 0.94,0.9399 4.6641,2.1522 8.2757,2.6938 3.6118,0.5416 8.9923,2.0729 11.9568,3.403 2.9646,1.3302 8.8402,3.4568 13.0568,4.726 4.2167,1.2692 7.6667,2.749 7.6667,3.2882 0,0.5392 2.3221,1.3517 5.1601,1.8054 2.8382,0.4539 5.8306,1.633 6.6499,2.6202 0.8193,0.9872 4.8585,2.603 8.976,3.5909 4.1173,0.9877 7.7633,2.5181 8.1021,3.4009 0.3387,0.8827 3.4275,2.374 6.8639,3.3139 3.4364,0.9399 7.6789,2.8071 9.4279,4.1493 1.7488,1.3423 4.269,2.4406 5.6004,2.4406 1.3313,0 2.9004,0.75 3.4868,1.6666 1.4061,2.198 6.5002,5 9.09,5 1.1329,0 2.3724,0.8143 2.7544,1.8096 0.3818,0.9952 3.0998,2.6034 6.0398,3.5738 2.94,0.9702 5.9299,2.856 6.644,4.1904 0.7142,1.3344 2.2175,2.4262 3.3406,2.4262 1.1232,0 4.0086,1.5 6.4122,3.3334 2.4036,1.8333 5.1634,3.3333 6.1326,3.3333 0.9692,0 2.7126,0.9155 3.8741,2.0344 3.9685,3.8231 14.616,11.2989 16.0925,11.2989 0.8107,0 2.9739,1.5 4.8072,3.3334 1.8334,1.8333 3.9448,3.3333 4.6922,3.3333 0.7473,0 2.8734,1.8 4.7246,4 1.8511,2.2 4.231,4 5.2884,4 1.0575,0 3.85,2.1 6.2056,4.6667 2.3556,2.5666 4.839,4.6666 5.5187,4.6666 2.3693,0 43.7555,39.7822 43.1577,41.485 -1.9873,5.6616 -71.0754,75.3592 -103.0785,103.9878 -176.1044,157.5363 -391.5098,266.1718 -620.713,313.0446 -55.0518,11.2582 -95.1646,16.9925 -164.9169,23.5752 l -8.3333,0.7864 v -5.9951 z m 192.5217,-481.6536 c 0.4004,-1.0434 1.6329,-1.897 2.7391,-1.897 1.106,0 2.9938,-1.5 4.1952,-3.3333 1.2012,-1.8333 2.9938,-3.3333 3.9837,-3.3333 0.9899,0 2.4159,-1.1512 3.1689,-2.5583 0.7531,-1.4071 3.1792,-2.9559 5.3914,-3.4417 2.2121,-0.4859 4.6382,-2.0347 5.3913,-3.4418 0.7531,-1.407 2.214,-2.5582 3.2467,-2.5582 1.0325,0 2.7036,-1.1795 3.7132,-2.621 1.0097,-1.4414 3.2937,-3.2034 5.0756,-3.9154 2.3208,-0.9274 -2.4971,-1.3186 -16.9844,-1.3791 -11.1234,-0.047 -21.1734,0.2796 -22.3334,0.7248 -1.752,0.6723 -2.109,3.3744 -2.109,15.9581 0,12.552 0.3252,15.024 1.8969,14.421 1.0433,-0.4004 2.2244,-1.5815 2.6248,-2.6248 z M 992.00001,1901.3334 v -6.6667 h 6.66667 6.66662 V 1888 c 0,-6.0193 0.2914,-6.6684 3,-6.6849 7.4886,-0.045 9,-1.3 9,-7.4705 V 1868 h -6 -6 v -7.3588 c 0,-7.1834 -0.079,-7.3388 -3.3333,-6.522 -1.8333,0.4602 -4.83332,0.4602 -6.66665,0 -2.99744,-0.7524 -3.33334,-1.5058 -3.33334,-7.478 V 1840 h -8.66666 -8.66667 v 7.434 7.4342 l -5.66667,-0.2244 c -3.11666,-0.124 -8.21666,-0.1687 -11.33333,-0.1 l -5.66667,0.1229 v 19.2603 19.2602 l 6.33334,0.4064 6.33333,0.4064 0.40301,7 0.40302,7 h 13.26365 13.26365 z m -53.33333,-48 V 1840 h 13.33333 13.33334 v -6.6666 -6.6667 h 20 19.99995 V 1820 v -6.6666 h 6.6667 6.6667 v -14 -14 h 6.7023 6.7023 l -0.369,-19.6667 -0.369,-19.6667 H 1012 992.66668 l -0.38337,12.3334 -0.38336,12.3333 h -5.80732 c -6.62296,0 -7.42595,1.0931 -7.42595,10.1091 v 5.8909 h -6.66667 -6.66666 v 6.6667 6.6666 h -6.66667 -6.66667 v 6.6667 6.6667 h -6.59361 -6.59361 l -0.40639,6.3333 -0.40639,6.3333 -47,0.3504 -47,0.3504 v 13.983 13.9829 h 6 6 v 6 6 h 41.33333 41.33334 z m -108.28591,-26.929 0.38076,-12.9288 6.28591,-0.4045 6.2859,-0.4044 0.40639,-6.3333 0.40639,-6.3334 h -6.73972 -6.73972 v -6.6666 -6.6667 h -6.66667 -6.66667 v -6.5936 -6.5936 l -6.33333,-0.4064 -6.33333,-0.4064 -0.3526,-41 -0.3526,-41 h 4.57688 c 7.62002,0 8.79498,-0.9988 8.79498,-7.476 v -5.8573 h 6.66667 6.66667 V 1670.6667 1664 h 6.66666 6.66667 v -7.3333 -7.3333 h -6.66667 -6.66666 V 1636.6667 1624 H 817.4064 804.14612 l -0.40639,6.3334 -0.40639,6.3333 -6.26314,0.4035 -6.26315,0.4036 -0.40352,6.263 -0.40352,6.2632 -6.28591,0.4044 -6.2859,0.4046 -0.38076,12.9288 -0.38076,12.9289 -7.33334,0.6667 -7.33333,0.6666 -0.13107,8 -0.13106,8 -5.53563,0.41 -5.53564,0.41 v 5.9234 5.9233 h 5.33333 5.33334 V 1726 v 19.3334 h -6 -6 V 1732 1718.6667 h -5.26028 -5.26028 l -0.40639,-6.3333 -0.40639,-6.3334 h -20.66666 -20.66667 l -0.39987,7.6667 -0.39988,7.6667 h -5.26678 -5.2668 v 11.3176 11.3176 l 5.33333,0.8528 5.33333,0.8528 v 6.4962 6.4963 h 13.25464 c 7.39819,0 13.61875,0.5891 14.0787,1.3333 1.24886,2.0207 11.26254,1.5946 13.42857,-0.5714 1.04761,-1.0476 1.90476,-4.0476 1.90476,-6.6667 0,-4.5437 0.21152,-4.7619 4.61839,-4.7619 h 4.61838 l 0.38162,13 0.38161,13 7.06951,0.4055 c 7.6265,0.4373 9.91022,2.652 7.20366,6.9859 -1.86058,2.9793 0.21583,3.942 8.50255,3.942 h 5.89095 v 13.9269 13.9269 l 6.33333,0.4064 6.33333,0.4064 0.40639,6.3334 0.40639,6.3333 h 6.59361 6.59361 v 6.7149 6.715 l 13,-0.3816 13,-0.3816 0.38076,-12.929 z M 1032,1697.4064 v -19.9269 l -6.3333,-0.4064 -6.3334,-0.4064 -0.3807,-12.9289 -0.3808,-12.9288 -6.2859,-0.4046 L 1006,1650 l -0.4049,-6.2981 -0.405,-6.298 -19.59503,-0.3687 -19.59506,-0.3685 -0.40445,-6.2859 -0.40445,-6.286 -12.92888,-0.3806 -12.92888,-0.3808 -0.38162,-13 -0.38161,-13 h -41.28506 -41.28505 v 5.3333 5.3333 h -6 -6 v 13.983 13.9829 l 47,0.3504 47,0.3504 0.40302,7 0.40301,7 h 6.59699 6.59698 v 6.6667 6.6666 h 6.66667 6.66667 v 6.6667 6.6667 h 6.66666 6.66667 v 6.6666 6.6667 h 6.66667 6.66666 V 1704 1717.3334 H 1012 h 20 z m -39.73971,-81.073 0.40639,-6.3334 6.33333,-0.4064 6.33329,-0.4064 V 1602.5936 1596 h 6.7434 6.7433 l -0.41,-5.6666 -0.41,-5.6667 -6.3333,-0.4064 -6.3334,-0.4064 v -7.2603 -7.2602 h -4.6666 -4.66669 V 1562.6667 1556 h -15.33333 -15.33333 v 6.6667 6.6667 h -6.66667 -6.66667 v 20 20 h 6.66667 6.66667 v 6.6666 6.6667 h 13.26028 13.26028 z m 1459.48051,416.3333 c -4.0657,-4.0333 -7.8506,-7.3333 -8.4113,-7.3333 -0.5605,0 -3.9721,-3 -7.5815,-6.6667 -3.6093,-3.6667 -7.4057,-6.6667 -8.4365,-6.6667 -2.4839,0 -7.3115,-5.2726 -7.3115,-7.9856 0,-2.7801 3.0368,-9.3238 4.3334,-9.3373 0.55,0 1,-0.9737 1,-2.1512 0,-1.1775 1.5,-3.9236 3.3333,-6.1024 1.8333,-2.1788 3.3333,-5.0328 3.3333,-6.3424 0,-1.3096 1.7763,-4.6163 3.9474,-7.3481 2.1709,-2.7318 4.3113,-6.1143 4.7565,-7.5167 0.4451,-1.4023 1.2483,-2.5496 1.7848,-2.5496 0.5365,0 1.7351,-2.1 2.6631,-4.6667 0.9281,-2.5666 2.2256,-4.6666 2.8832,-4.6666 0.6576,0 1.8412,-2.3976 2.6302,-5.3279 0.7891,-2.9304 2.5326,-6.3804 3.8744,-7.6667 1.3419,-1.2864 3.1659,-4.5888 4.0535,-7.3388 0.8876,-2.75 2.1585,-5 2.8245,-5 0.6659,0 1.8803,-2.6592 2.6987,-5.9093 0.8184,-3.2501 2.2956,-6.2192 3.2827,-6.598 0.987,-0.3788 2.4492,-3.1196 3.2492,-6.0907 0.8001,-2.971 1.9833,-5.402 2.6294,-5.402 0.6462,0 2.1712,-3 3.3891,-6.6666 1.2179,-3.6667 2.742,-6.6667 3.3869,-6.6667 0.645,0 1.9324,-2.5356 2.861,-5.6347 0.9284,-3.099 2.719,-6.6656 3.979,-7.9256 1.26,-1.26 2.6835,-4.3829 3.1631,-6.9397 0.4797,-2.5567 1.6463,-4.9457 2.5925,-5.3088 0.9462,-0.3631 2.5007,-3.7047 3.4543,-7.4257 0.9537,-3.721 2.1243,-6.7655 2.6012,-6.7655 1.2733,0 3.962,-6.3764 3.962,-9.3961 0,-1.4322 0.4535,-2.6039 1.0079,-2.6039 1.43,0 4.3214,-6.9424 5.2342,-12.5671 0.4254,-2.6214 1.2415,-4.7662 1.8134,-4.7662 1.2648,0 6.5944,-10.7504 6.6536,-13.421 0.023,-1.0518 0.9233,-3.077 2,-4.5005 1.0766,-1.4236 1.9576,-3.6817 1.9576,-5.0181 0,-1.3364 0.5268,-3.4718 1.1705,-4.7452 3.1263,-6.1834 5.4961,-12.663 5.4961,-15.0271 0,-1.4419 0.45,-2.6261 1,-2.6319 1.3355,-0.013 4.3334,-6.5929 4.3334,-9.51 0,-1.2772 0.5477,-2.6608 1.2173,-3.0745 0.6695,-0.4139 1.6217,-3.1461 2.116,-6.0717 0.4943,-2.9256 1.4465,-5.6579 2.116,-6.0718 0.6696,-0.4137 1.2173,-2.5169 1.2173,-4.6736 0,-2.1568 0.6,-3.9213 1.3334,-3.9213 0.7333,0 1.3333,-1.4645 1.3333,-3.2547 0,-1.79 0.5653,-3.604 1.2563,-4.031 0.6909,-0.4271 1.659,-3.4624 2.1514,-6.7454 0.4923,-3.2829 1.427,-5.9689 2.077,-5.9689 0.6501,0 1.182,-1.4645 1.182,-3.2547 0,-1.79 0.6,-3.6254 1.3333,-4.0786 0.7333,-0.4532 1.3333,-1.9887 1.3333,-3.412 0,-1.4235 0.5568,-2.588 1.2374,-2.588 0.6806,0 1.61,-3.45 2.0653,-7.6667 0.4553,-4.2167 1.3985,-8.7085 2.096,-9.9819 0.6973,-1.2734 1.268,-3.2234 1.268,-4.3333 0,-1.11 0.4857,-2.0181 1.0795,-2.0181 0.9512,0 2.651,-6.9767 5.1169,-21 0.4191,-2.3834 1.2665,-4.3334 1.8832,-4.3334 0.6168,0 1.5344,-3.6508 2.0392,-8.1128 0.5163,-4.5634 1.6568,-8.3964 2.6071,-8.761 1.001,-0.3842 2.0673,-4.4138 2.6174,-9.8924 0.5107,-5.0844 1.4672,-9.5774 2.1259,-9.9844 0.6585,-0.4071 1.1975,-2.3847 1.1975,-4.3947 0,-2.0101 0.5686,-4.2247 1.2636,-4.9213 0.6949,-0.6967 1.6733,-5.4667 2.1742,-10.6 0.5008,-5.1334 1.6851,-10.2334 2.6315,-11.3334 0.9688,-1.126 2.4351,-9.2833 3.3552,-18.6666 0.9849,-10.0428 2.3101,-17.2248 3.3344,-18.0711 1.0684,-0.8827 2.3207,-8.4881 3.3705,-20.4713 0.9188,-10.487 2.3687,-19.7652 3.2219,-20.6184 1.5219,-1.522 4.6487,-33.5375 4.6487,-47.5986 0,-4.1366 0.7686,-7.8972 1.8673,-9.1357 6.076,-6.8492 6.2884,-245.0028 0.2231,-250.105 -1.0018,-0.8426 -2.2295,-10.8925 -3.3358,-27.3067 -1.1453,-16.9918 -2.3178,-26.4437 -3.3906,-27.3334 -1.0143,-0.841 -2.2932,-9.2397 -3.3523,-22.0138 -1.0755,-12.972 -2.3297,-21.1546 -3.3723,-22 -0.9314,-0.7554 -2.3477,-7.7084 -3.2274,-15.8451 -0.8623,-7.9745 -2.371,-15.7745 -3.3528,-17.3333 -0.9818,-1.5589 -2.198,-7.4843 -2.7026,-13.1677 -0.5046,-5.6833 -1.4662,-10.3333 -2.137,-10.3333 -0.6708,0 -1.2196,-2.0646 -1.2196,-4.588 0,-2.5233 -0.541,-4.9223 -1.2022,-5.3309 -0.6612,-0.4086 -1.6169,-4.3168 -2.1238,-8.6849 -0.5071,-4.3681 -1.7282,-8.6112 -2.7136,-9.4291 -0.9855,-0.8179 -2.199,-4.745 -2.6964,-8.7271 -0.4976,-3.982 -1.4355,-7.24 -2.0843,-7.24 -0.6489,0 -1.1797,-2.0646 -1.1797,-4.588 0,-2.5233 -0.521,-4.90988 -1.1576,-5.30337 -0.6367,-0.39348 -1.5446,-3.63251 -2.0175,-7.19783 -0.4729,-3.56531 -1.9775,-8.82877 -3.3433,-11.69659 -1.3659,-2.86781 -2.9012,-8.6642 -3.4118,-12.88086 -0.5106,-4.21667 -1.4852,-7.66667 -2.1658,-7.66667 -0.6806,0 -1.2374,-1.16459 -1.2374,-2.58797 0,-1.42339 -0.6,-2.9588 -1.3333,-3.41203 -0.7333,-0.45323 -1.3333,-2.88864 -1.3333,-5.41203 0,-2.52338 -0.5319,-4.58797 -1.182,-4.58797 -0.65,0 -1.5847,-2.68601 -2.077,-5.96892 -0.4924,-3.28291 -1.4605,-6.31832 -2.1514,-6.74536 -0.691,-0.42704 -1.2563,-1.94103 -1.2563,-3.36442 0,-1.42338 -0.6,-2.58797 -1.3333,-2.58797 -0.7334,0 -1.3334,-1.46459 -1.3334,-3.25464 0,-1.79005 -0.5653,-3.60404 -1.2562,-4.03108 -0.691,-0.42704 -1.6591,-3.46245 -2.1515,-6.74536 -0.4923,-3.28291 -1.4269,-5.96892 -2.0769,-5.96892 -0.6502,0 -1.182,-1.0074 -1.182,-2.23867 0,-3.09424 -2.9931,-11.09466 -4.1507,-11.09466 -0.5216,0 -1.3532,-2.39686 -1.8481,-5.32635 -0.495,-2.92949 -1.4478,-5.66491 -2.1172,-6.07869 -0.6696,-0.41379 -1.2174,-1.91694 -1.2174,-3.34032 0,-1.42339 -0.6,-2.58798 -1.3333,-2.58798 -0.7333,0 -1.3333,-1.25932 -1.3333,-2.79849 0,-1.53917 -0.8288,-4.68917 -1.8419,-7 -1.0129,-2.31083 -2.8129,-6.39219 -4,-9.06968 -1.1869,-2.67749 -2.1581,-6.14632 -2.1581,-7.70851 0,-1.56218 -0.8838,-3.17944 -1.9638,-3.5939 -1.08,-0.41446 -2.3632,-2.94562 -2.8513,-5.62482 -0.4883,-2.6792 -1.9647,-6.40786 -3.2809,-8.28592 -1.3164,-1.87806 -2.8104,-5.07653 -3.3203,-7.10769 -0.5097,-2.03116 -1.7131,-3.99469 -2.6739,-4.36339 -0.9608,-0.3687 -2.121,-2.57025 -2.5784,-4.89232 -1.1476,-5.8266 -3.4545,-11.55528 -4.6533,-11.55528 -0.5491,0 -1.7588,-2.71638 -2.6883,-6.03642 -0.9296,-3.32004 -2.3609,-6.47004 -3.1806,-7 -0.8198,-0.52996 -2.3296,-3.36358 -3.3551,-6.29691 -1.0255,-2.93333 -2.5703,-5.93333 -3.4328,-6.66667 -0.8627,-0.73333 -2.356,-3.85202 -3.3187,-6.93042 -0.9626,-3.07842 -2.4888,-5.88051 -3.3914,-6.2269 -0.9027,-0.34637 -2.0332,-2.71974 -2.5124,-5.27416 -0.4792,-2.55441 -1.7176,-4.96914 -2.752,-5.36608 -2.1374,-0.82017 -4.695,-8.90118 -4.706,-14.8691 0,-2.9664 1.18,-4.94747 4.588,-7.66667 2.5274,-2.01667 5.4312,-3.66667 6.4526,-3.66667 1.0215,0 2.5407,-1.5 3.3759,-3.33333 0.8353,-1.83333 2.4951,-3.33333 3.6883,-3.33333 1.8781,0 4.2988,-1.59696 12.1836,-8.03772 1.6745,-1.36784 13.736,-7.96228 14.5633,-7.96228 0.8451,0 28.3973,55.79285 37.7211,76.38465 68.5468,151.38823 107.6708,310.54637 117.4064,477.61537 1.7033,29.2307 1.7033,117.4359 0,146.6667 -12.7558,218.8954 -76.2216,425.2908 -188.2906,612.3333 -8.0188,13.3833 -14.726,24.3333 -14.9048,24.3333 -0.1789,0 -3.6516,-3.3 -7.7172,-7.3333 z M 1890,1879.8891 c -18.8664,-1.1871 -45.0534,-5.2761 -63.8705,-9.9731 -14.3903,-3.592 -36.2527,-10.5257 -39.332,-12.4742 -1.5512,-0.9815 -0.3873,-7.5024 6.8377,-38.3123 4.7888,-20.4212 9.2299,-37.0044 9.8692,-36.8517 0.6392,0.1528 9.711,3.2912 20.1594,6.9742 31.3566,11.0531 40.9836,12.6262 77.6696,12.6919 33.7093,0.06 40.2416,-0.8681 55.6241,-7.9071 21.44,-9.8106 34.148,-35.0928 29.9485,-59.582 -4.0037,-23.3478 -20.9196,-38.9968 -49.5726,-45.8597 -7.8051,-1.8695 -17.3895,-2.5195 -43.6667,-2.9615 L 1860,1685.0672 v -37.2002 -37.2003 h 27.8827 c 31.7153,0 43.4636,-1.6428 56.6064,-7.9152 9.6875,-4.6235 18.3381,-13.2311 22.6297,-22.5172 2.4003,-5.1936 2.8812,-8.6825 2.8812,-20.9009 0,-12.7383 -0.402,-15.4196 -3.0577,-20.3935 C 1956.9344,1520.1966 1939.975,1512 1911.2006,1512 c -25.4914,0 -48.535,6.1747 -74.6982,20.0158 l -12.1644,6.4352 -15.619,-31.9595 c -8.5906,-17.5777 -15.3215,-32.7355 -14.9576,-33.6837 0.9398,-2.4492 36.7054,-19.9551 50.3434,-24.6412 17.2239,-5.9183 41.1751,-10.8804 57.9522,-12.0062 86.229,-5.7865 145.0321,29.0448 157.1845,93.1064 2.6205,13.815 2.6627,35.4787 0.089,46.3899 -5.508,23.3603 -21.7121,46.6192 -41.3314,59.3257 -4.4,2.8498 -7.8568,5.4576 -7.6819,5.7954 0.1751,0.3378 4.7473,2.9061 10.1608,5.7074 31.7827,16.4468 51.2888,43.1474 56.8908,77.8739 2.3207,14.3859 1.0195,43.8435 -2.5311,57.2972 -6.0709,23.0044 -13.5108,36.6547 -28.6628,52.5896 -24.8518,26.1356 -64.5785,42.4093 -110.1758,45.1324 -23.6664,1.4133 -30.4582,1.4888 -46,0.5108 z m 437.3334,-4.1141 c -48.2187,-3.3935 -83.0275,-31.2352 -95.5704,-76.4416 -2.5884,-9.3291 -2.968,-14.0108 -3.0267,-37.3334 -0.08,-31.7402 1.9663,-42.0417 12.8188,-64.5376 5.6172,-11.6433 8.3313,-15.5018 16.9017,-24.0272 18.004,-17.9094 37.4456,-25.4862 65.612,-25.5702 16.0684,-0.048 27.4208,1.8705 39.6931,6.7078 l 6.9048,2.7216 v -49.8745 -49.8747 l 3.6667,-0.769 c 6.6429,-1.3932 53.372,-8.7762 55.5477,-8.7762 1.9408,0 2.0997,14.0422 1.7911,158.2463 l -0.3388,158.2463 -6.6667,1.7278 c -28.5385,7.3968 -70.0675,11.4734 -97.3333,9.5546 z m 38.3333,-52.6307 5,-0.8265 v -56.9119 -56.912 l -5,-2.4224 c -12.8385,-6.22 -35.2032,-8.1119 -47.2737,-3.9991 -13.3807,4.5592 -23.3918,18.5506 -26.5056,37.0438 -2.2534,13.3834 -0.9168,39.453 2.5789,50.3004 5.1445,15.9638 15.7221,27.5202 29.6539,32.3976 6.1144,2.1406 31.689,2.9593 41.5465,1.3301 z m -268.3333,-55.6381 v -104.4939 l 14.3333,-4.1611 c 41.608,-12.0789 79.5075,-14.3772 113.7709,-6.899 6.7722,1.478 12.5648,2.9392 12.8726,3.2469 0.5485,0.5485 -8.8391,49.0429 -9.6611,49.9079 -0.2303,0.2421 -6.9204,-0.8779 -14.8671,-2.4891 -12.0802,-2.4492 -17.3992,-2.8233 -32.4486,-2.2819 -9.9,0.3562 -19.05,1.0904 -20.3334,1.6318 -2.1873,0.9226 -2.3333,6.273 -2.3333,85.5082 V 1872 H 2128 2097.3334 Z m -916.0001,-415.6776 c -40.8347,-3.428 -65.2242,-31.3931 -65.3101,-74.8848 -0.076,-38.1805 17.688,-66.5937 46.4092,-74.233 9.7,-2.58 29.1933,-1.9811 38.5943,1.1859 4.5224,1.5235 8.5414,2.77 8.9312,2.77 0.3898,0 0.7088,-14.8765 0.7088,-33.0589 v -33.0589 L 1229,1137.5917 c 10.0833,-1.6264 19.0833,-2.9499 20,-2.9411 1.3191,0.013 1.6667,21.9391 1.6667,105.1437 v 105.1277 l -9.6667,2.1178 c -19.7487,4.3266 -42.9705,6.1902 -59.6667,4.7888 z m 29.0206,-73.5547 0.3539,-38.3928 -5.0206,-2.1794 c -5.6815,-2.4663 -20.6241,-3.7814 -27.7582,-2.443 -6.4341,1.207 -14.5779,8.8744 -17.5177,16.4928 -1.8671,4.8383 -2.4089,10.0099 -2.4005,22.9152 0.012,18.298 1.6256,24.0022 9.3898,33.1897 6.4037,7.5775 12.4643,9.5137 28.5994,9.1371 l 14,-0.3268 z m 268.3128,73.5547 c -40.8348,-3.428 -65.2243,-31.3931 -65.3101,-74.8848 -0.076,-38.1805 17.688,-66.5937 46.4092,-74.233 9.7,-2.58 29.1933,-1.9811 38.5942,1.1859 4.5224,1.5235 8.5415,2.77 8.9314,2.77 0.3897,0 0.7086,-14.8765 0.7086,-33.0589 v -33.0589 l 18.3334,-2.9572 c 10.0833,-1.6264 19.0833,-2.9499 20,-2.9411 1.319,0.013 1.6666,21.9391 1.6666,105.1437 v 105.1277 l -9.6666,2.1178 c -19.7487,4.3266 -42.9706,6.1902 -59.6667,4.7888 z m 29.0205,-73.5547 0.3539,-38.3928 -5.0205,-2.1794 c -5.6815,-2.4663 -20.6242,-3.7814 -27.7583,-2.443 -6.434,1.207 -14.5779,8.8744 -17.5177,16.4928 -1.8671,4.8383 -2.4088,10.0099 -2.4004,22.9152 0.013,18.298 1.6256,24.0022 9.3898,33.1897 6.4036,7.5775 12.4642,9.5137 28.5994,9.1371 l 14,-0.3268 z m 287.9614,73.6884 c -27.674,-3.4109 -47.2042,-23.6676 -55.936,-58.0162 -2.7316,-10.7454 -3.0292,-14.9614 -2.9611,-41.9461 0.067,-26.5499 0.4107,-31.2267 2.9877,-40.6667 11.2906,-41.3583 38.0659,-62.2481 74.1406,-57.8434 12.8644,1.5707 24.5252,7.3526 33.893,16.8056 17.0676,17.2228 25.5448,44.558 25.5448,82.3712 0,37.6375 -8.4905,65.1597 -25.3518,82.1783 -13.7391,13.867 -31.5112,19.6818 -52.3172,17.1173 z m 20.4632,-37.6656 c 10.5778,-7.1284 15.8882,-27.7273 15.8882,-61.63 0,-44.611 -8.4772,-64.6667 -27.3333,-64.6667 -13.0459,0 -20.9244,9.4757 -25.4981,30.6667 -2.9796,13.8058 -2.97,54.0578 0.016,68 2.7992,13.0685 8.2653,23.8612 14.0122,27.6666 6.2643,4.1481 16.7296,4.1314 22.9146,-0.037 z m -784.7785,36.3891 c -34.85826,-3.1206 -51.33339,-19.6516 -49.74503,-49.9138 1.13762,-21.6746 13.21546,-34.4648 37.96523,-40.2047 9.4732,-2.197 31.4863,-2.8169 42.2913,-1.1909 l 6.5114,0.9798 -0.9506,-6.5114 c -1.3317,-9.1219 -4.5088,-14.0143 -11.4361,-17.6101 -5.6185,-2.9165 -7.0669,-3.0627 -24.6362,-2.4879 -11.2696,0.3686 -21.1476,1.4041 -24.9275,2.6129 l -6.2608,2.0024 -0.71549,-3.5144 c -0.39352,-1.9329 -1.3368,-7.7144 -2.09616,-12.8477 -0.75936,-5.1333 -1.69547,-10.8821 -2.08023,-12.7752 -0.65496,-3.2224 -0.24968,-3.5393 6.35698,-4.9705 21.5751,-4.6738 48.5067,-5.9148 63.2361,-2.9139 15.2157,3.1 28.3043,12.0437 34.1368,23.3263 6.1657,11.9271 6.6131,16.1389 7.3159,68.8623 0.6415,48.1297 0.5668,50.2254 -1.815,50.9185 -16.2092,4.7169 -54.0741,7.946 -73.1506,6.2383 z m 36.3777,-47.2464 c 0.2808,-11.8191 -0.061,-16.1723 -1.3334,-16.9796 -0.941,-0.5971 -8.0109,-1.0816 -15.7109,-1.0768 -21.1032,0.013 -29.3334,4.7413 -29.3334,16.8509 0,14.151 6.4591,17.9026 30,17.4244 l 16,-0.325 z m -305.83542,32.894 c 0.45644,-7.1501 1.73978,-28.0001 2.85188,-46.3334 2.77988,-45.8274 5.62172,-81.1657 8.68503,-107.9982 1.42313,-12.4657 2.58752,-23.4157 2.58752,-24.3333 0,-1.2634 4.97583,-1.6685 20.49304,-1.6685 h 20.49304 l 9.32769,19 c 10.3346,21.051 18.07218,38.2702 32.70268,72.7766 5.38918,12.7105 10.31056,23.1012 10.93644,23.0904 0.62587,-0.011 3.49332,-5.6102 6.37211,-12.4433 13.05961,-30.998 27.46853,-63.4157 36.48723,-82.0904 L 922.63197,1156 h 19.2335 19.23348 l 0.78625,5 c 4.49625,28.5932 14.10869,151.1884 14.11344,180 l 10e-4,8.3334 h -19.9183 -19.9183 l -0.69301,-5.6667 C 935.08921,1340.55 934.42192,1325.4 933.98749,1310 c -0.86281,-30.5857 -4.28941,-87.413 -5.33385,-88.4574 -0.35952,-0.3595 -0.85624,-0.4037 -1.10384,-0.098 -0.24759,0.3056 -10.27936,23.824 -22.29283,52.2632 l -21.84261,51.7076 -14.57431,-0.3743 -14.57431,-0.3742 -8.23153,-19.3334 c -4.52735,-10.6333 -14.42541,-33.951 -21.99571,-51.817 -8.50026,-20.0608 -14.13346,-31.7888 -14.72978,-30.6667 -1.52728,2.8741 -6.56495,93.2327 -6.62427,118.8171 l -0.0178,7.6667 h -20.8105 -20.81049 z M 1268,1280.1461 v -69.1873 l 10.6514,-2.874 c 26.8803,-7.2531 51.8443,-8.9151 72.682,-4.8389 6.7944,1.3291 10.828,1.6027 11.111,0.7537 0.2698,-0.8089 8.2636,-1.3329 20.3334,-1.3329 h 19.8889 V 1276 v 73.3334 h -20 -20 L 1362.5827,1279 c -0.047,-38.6833 -0.5567,-69.1333 -1.1336,-67.6667 -0.5771,1.4667 -2.1243,8.3667 -3.4384,15.3334 -1.314,6.9666 -2.4588,12.7716 -2.544,12.8999 -0.085,0.1282 -3.7499,-0.6124 -8.1437,-1.6459 -8.2614,-1.9431 -27.8481,-2.5489 -35.1558,-1.0874 l -4.1667,0.8334 v 55.8333 55.8334 h -20 -20 v -69.1873 z m 337.3678,55.5206 c 0.027,-10.5839 0.7068,-15.639 3.0153,-22.4104 5.5733,-16.3482 10.7304,-23.0576 41.0829,-53.4496 32.2491,-32.2909 35.8674,-37.3891 35.8674,-50.538 0,-14.0817 -8.1999,-21.2629 -24.2834,-21.2666 -11.07,0 -20.7858,3.4401 -32.6696,11.5761 -4.7892,3.2787 -9.1734,5.465 -9.743,4.8583 -0.5696,-0.6068 -5.0282,-6.7763 -9.908,-13.7101 l -8.8724,-12.607 3.0716,-2.4781 c 11.3254,-9.1371 28.3378,-17.9347 40.3673,-20.875 9.194,-2.2472 31.8853,-1.9903 42.5447,0.4817 26.6357,6.1773 40.8261,23.6213 40.8261,50.1869 0,22.338 -8.496,36.013 -45.5968,73.3916 -14.8884,15 -28.1537,29.2003 -29.4785,31.5564 l -2.4088,4.2838 h 42.0754 42.0754 V 1332 v 17.3334 h -64 -64 l 0.035,-13.6667 z m 272,0 c 0.027,-10.5839 0.7068,-15.639 3.0153,-22.4104 5.5733,-16.3482 10.7304,-23.0576 41.0829,-53.4496 32.2491,-32.2909 35.8674,-37.3891 35.8674,-50.538 0,-14.0817 -8.1999,-21.2629 -24.2834,-21.2666 -11.07,0 -20.7858,3.4401 -32.6696,11.5761 -4.7892,3.2787 -9.1734,5.465 -9.743,4.8583 -0.5696,-0.6068 -5.0282,-6.7763 -9.908,-13.7101 l -8.8724,-12.607 3.0716,-2.4781 c 11.3254,-9.1371 28.3378,-17.9347 40.3673,-20.875 9.194,-2.2472 31.8853,-1.9903 42.5447,0.4817 26.6357,6.1773 40.8261,23.6213 40.8261,50.1869 0,22.338 -8.496,36.013 -45.5968,73.3916 -14.8884,15 -28.1537,29.2003 -29.4785,31.5564 l -2.4088,4.2838 h 42.0754 42.0754 V 1332 v 17.3334 h -64 -64 l 0.035,-13.6667 z M 2086.6667,1328 v -21.3333 H 2045.3334 2004 v -16.2199 -16.22 l 8.7779,-15.4467 c 17.5424,-30.8701 44.8439,-69.1004 65.9901,-92.4059 L 2088.181,1156 h 19.2429 19.2428 v 58 58 h 10 10 v 17.3333 17.3334 h -10 -10 V 1328 v 21.3334 h -20 -20 z m -0.055,-89 -0.055,-33 -3.9896,4.6667 c -12.8967,15.0854 -39.8088,55.7948 -39.8852,60.3333 -0.013,0.55 9.8832,1 21.9832,1 h 22 l -0.055,-33 z m -709.7506,-55.1749 c -15.2502,-3.4851 -22.5348,-20.0309 -15.1947,-34.5121 6.5661,-12.9543 24.5332,-16.4038 36.7815,-7.0616 5.4789,4.179 8.2185,10.3177 8.2185,18.4153 0,3.3471 -0.8364,8.0873 -1.8585,10.5337 -3.9307,9.4075 -16.728,15.1885 -27.9468,12.6247 z m -828.86139,-97.2717 c -70.45056,-3.8751 -119.26674,-39.3975 -136.69822,-99.47208 -7.16692,-24.69953 -7.30178,-27.88105 -7.30178,-172.25243 V 681.33334 h 44 44 v 124.36831 c 0,76.44253 0.52513,128.72219 1.36273,135.66667 2.74956,22.79636 9.26947,38.59993 20.99736,50.89541 12.40159,13.00177 27.362,18.40297 50.97324,18.40297 15.91375,0 26.05323,-2.127 38,-7.9712 8.70447,-4.25811 18.91397,-13.30537 23.86483,-21.14802 4.73557,-7.50164 9.76974,-22.60713 11.37101,-34.11979 0.93744,-6.74002 1.43083,-54.39119 1.43083,-138.19083 V 681.33334 h 44.66667 44.66666 l -10e-4,126.33334 c -10e-4,126.11435 -0.54485,144.83525 -4.8061,165.47223 -16.3091,78.98399 -78.30805,118.81709 -176.52611,113.41449 z m 341.33333,-0.013 c -29.7432,-1.5619 -67.06233,-7.0664 -91.00409,-13.423 l -10.33743,-2.7447 0.33743,-211.42309 0.33743,-211.42314 39.33333,-6.39029 c 21.63333,-3.51465 40.38333,-6.40803 41.66667,-6.42969 2.19492,-0.0371 2.33333,4.39001 2.33333,74.62725 0,41.06667 0.34803,74.66667 0.77339,74.66667 0.42536,0 5.78712,-1.76963 11.91501,-3.93251 17.07888,-6.02809 30.87267,-8.1915 51.97827,-8.15224 22.06388,0.0411 37.96,2.91126 53.61964,9.68158 39.58738,17.11526 65.00158,53.18354 74.50368,105.7365 3.3986,18.79708 3.4595,61.86594 0.1109,78.49867 -9.7716,48.53589 -34.0397,83.33899 -71.69495,102.81869 -28.99191,14.998 -59.35375,20.227 -103.87261,17.8892 z m 41.95339,-73.9172 c 22.67806,-5.9069 37.92436,-23.04193 46.31572,-52.05347 2.71032,-9.3704 3.05648,-13.4429 3.05166,-35.90263 -0.007,-28.25208 -1.25423,-35.34501 -9.15051,-52 -5.52003,-11.64296 -13.62623,-19.87002 -24.83692,-25.20726 -8.47909,-4.03676 -9.08509,-4.12476 -28,-4.06559 -17.32104,0.0541 -20.44356,0.43187 -30,3.62856 -5.86667,1.96243 -12.01667,4.51924 -13.66667,5.68179 l -3,2.11372 v 78.56565 78.56563 l 3,0.6522 c 6.74385,1.4659 10.50895,1.71 29.0532,1.8837 13.63408,0.1278 21.71492,-0.4249 27.23352,-1.8623 z m 665.37997,73.8983 c -89.2689,-4.6417 -149.4992,-51.4667 -170.5928,-132.62465 -6.1859,-23.80011 -7.9591,-39.99325 -7.9461,-72.56311 0.013,-22.59377 0.5802,-33.12706 2.3141,-42.66666 12.2091,-67.17736 45.3831,-115.49431 97.7244,-142.33256 53.3251,-27.34262 124.76,-31.01842 188.6621,-9.7079 15.2731,5.09338 33.5332,13.38938 35.1191,15.95546 0.6335,1.02497 -15.4051,48.47521 -23.1053,68.3575 l -1.3966,3.60584 -9.7228,-4.45329 c -26.2328,-12.01532 -46.7509,-16.70717 -77.362,-17.69027 -25.5562,-0.82076 -33.0976,0.0333 -50.5306,5.72291 -44.3098,14.46116 -70.521,59.28896 -70.4822,120.54231 0.029,45.26441 12.7972,82.06605 35.621,102.66712 21.5488,19.4504 43.5513,26.6662 81.3105,26.6662 32.7525,0 61.1797,-5.2853 85.7539,-15.94364 6.8286,-2.96176 12.5216,-5.23607 12.6509,-5.05401 0.9259,1.30368 23.3157,68.28205 23.3157,69.74845 0,3.8959 -26.2533,14.5087 -52.4813,21.2152 -29.224,7.4727 -63.1699,10.4105 -98.852,8.5551 z m -372,-1.3324 c -18.7687,-1.2275 -33.1872,-4.2409 -46.9436,-9.811 -34.649,-14.0298 -53.6081,-38.5469 -63.445,-82.04435 -2.771,-12.25328 -2.8787,-15.98464 -3.2999,-114.33334 l -0.4353,-101.66667 h 41.9879 41.9879 l 0.5028,93.66667 c 0.5564,103.64138 0.5633,103.73131 9.2836,120.94087 5.1634,10.18982 11.8591,15.82092 22.9666,19.31462 6.6621,2.0955 10.8965,2.3371 30.5642,1.744 12.5569,-0.3787 23.8808,-1.1227 25.1641,-1.6534 2.1971,-0.9084 2.3333,-7.7699 2.3333,-117.48874 V 777.33374 h 42.667 42.6667 v 145.8883 145.88826 l -14.8069,3.4721 c -42.8382,10.0451 -94.4816,15.0077 -131.1931,12.6067 z m 658,-166.52202 V 757.33334 h -60 -60 v -38 -38 H 1927.3334 2092 v 38 38 h -60 -60 V 918.66668 1080 h -44.6666 -44.6667 z m 245.3333,-38 V 681.33334 h 133.3334 133.3333 v 38 38 H 2305.3334 2216 v 41.33334 41.33333 h 79.3334 79.3333 v 38 38 H 2295.3334 2216 v 82 V 1080 h -44 -44 z m -81.9214,-257.37574 c -1.8672,-1.41223 -6.5104,-1.99249 -16.6667,-2.08285 -16.7503,-0.14903 -35.5217,-1.76155 -44.7452,-3.84372 -7.2781,-1.64302 -22.2884,-3.85375 -26.9048,-3.96256 -1.5976,-0.0376 -3.7092,-0.87294 -4.6924,-1.85619 -0.9833,-0.98324 -7.6772,-2.56721 -14.8753,-3.51993 -7.8126,-1.03402 -13.3451,-2.40278 -13.7262,-3.39587 -0.3557,-0.92693 -5.4717,-2.41393 -11.5532,-3.35795 -6.0032,-0.93186 -11.5148,-2.43218 -12.2481,-3.33405 -0.7333,-0.90187 -4.6333,-2.39193 -8.6667,-3.31125 -4.0333,-0.91932 -7.7742,-2.41691 -8.3132,-3.32795 -0.5389,-0.91105 -3.6889,-2.06271 -7,-2.55923 -3.311,-0.49653 -6.0201,-1.46601 -6.0201,-2.15441 0,-0.6884 -0.8315,-1.25164 -1.8476,-1.25164 -1.0161,0 -3.5661,-0.89631 -5.6667,-1.99179 -2.1005,-1.09548 -5.1049,-1.99548 -6.6764,-2 -1.5716,-0.004 -3.197,-0.8934 -3.6122,-1.97529 -0.4151,-1.08191 -3.4386,-2.64285 -6.7186,-3.4688 -3.2801,-0.82593 -6.2561,-2.26353 -6.6134,-3.19467 -0.3574,-0.93113 -2.3116,-2.11008 -4.3427,-2.61986 -2.0312,-0.50979 -5.2663,-2.04711 -7.1891,-3.41626 -1.9228,-1.36914 -5.2593,-2.92164 -7.4146,-3.44997 -2.1552,-0.52835 -4.2187,-1.36765 -4.5854,-1.86515 -1.031,-1.39893 -17.3158,-10.68488 -18.7381,-10.68488 -0.694,0 -1.2619,-0.6 -1.2619,-1.33333 0,-0.73333 -0.8265,-1.33333 -1.8368,-1.33333 -1.0101,0 -2.5836,-0.9 -3.4965,-2 -0.9129,-1.1 -2.7221,-2 -4.0207,-2 -1.2984,0 -2.6816,-0.8363 -3.0738,-1.85843 -0.3923,-1.02215 -3.4183,-3.20945 -6.7246,-4.86071 -5.3281,-2.66097 -8.4798,-4.96769 -17.1809,-12.57434 -1.2833,-1.12192 -3.1643,-2.03986 -4.18,-2.03986 -1.0156,0 -2.8295,-1.5 -4.0307,-3.33333 -1.2013,-1.83333 -2.9453,-3.33333 -3.8756,-3.33333 -0.9302,0 -3.8705,-1.95 -6.5337,-4.33334 -2.6633,-2.38333 -7.6381,-6.73333 -11.0553,-9.66666 -3.4172,-2.93334 -7.7508,-6.68334 -9.6303,-8.33334 -1.8793,-1.65 -3.8045,-3 -4.278,-3 -1.3072,0 -10.7497,-9.16909 -10.7497,-10.43844 0,-0.61102 -1.5,-1.91372 -3.3334,-2.89489 -1.8333,-0.98117 -3.3333,-2.25368 -3.3333,-2.82779 0,-0.57412 -2.1033,-3.02273 -4.674,-5.44136 -6.0949,-5.73433 -7.6532,-7.24446 -9.6307,-9.33366 -0.9009,-0.95179 -3.7522,-3.83052 -6.3362,-6.39719 -2.584,-2.56667 -5.0638,-5.79993 -5.5106,-7.18503 -0.4468,-1.3851 -3.5954,-5.36488 -6.997,-8.84396 -6.7131,-6.8659 -14.8786,-16.4354 -16.5916,-19.44445 -0.5904,-1.03705 -2.5404,-3.35249 -4.3334,-5.14544 -1.7929,-1.79295 -3.2598,-4.16607 -3.2598,-5.2736 0,-1.10753 -1.2,-2.65592 -2.6667,-3.44085 C 1637.2,403.21507 1636,401.8213 1636,400.90273 c 0,-0.91857 -1.7756,-3.74746 -3.9458,-6.28642 -2.1702,-2.53897 -3.9702,-5.63649 -4,-6.88339 -0.029,-1.24689 -0.8728,-2.74689 -1.8735,-3.33333 -1.0007,-0.58644 -2.7611,-2.90995 -3.9121,-5.16336 -1.151,-2.25341 -3.0323,-4.87688 -4.1807,-5.82993 -1.1483,-0.95304 -2.0879,-2.726 -2.0879,-3.9399 0,-1.2139 -1.1678,-3.20706 -2.5953,-4.42926 -1.4273,-1.22219 -3.2505,-4.65554 -4.0513,-7.62966 -0.801,-2.9741 -1.9647,-5.40748 -2.5862,-5.40748 -0.6214,0 -2.1148,-1.95 -3.3182,-4.33333 -1.2036,-2.38333 -3.372,-6.42397 -4.8187,-8.9792 -1.4467,-2.55523 -2.6303,-5.70523 -2.6303,-7 0,-1.29477 -0.4534,-2.35413 -1.0078,-2.35413 -1.0535,0 -3.4075,-4.97416 -5.048,-10.66667 -0.5284,-1.83333 -2.082,-4.92596 -3.4524,-6.87249 -1.3704,-1.94654 -2.4918,-4.49654 -2.4918,-5.66667 0,-1.17013 -0.6,-2.12751 -1.3333,-2.12751 -0.7333,0 -1.3333,-0.83141 -1.3333,-1.84758 0,-1.01618 -0.8963,-3.56618 -1.9918,-5.66667 -1.0956,-2.10049 -1.9956,-5.16908 -2,-6.81908 0,-1.65 -0.6082,-3 -1.3416,-3 -0.7333,0 -1.3333,-1.16459 -1.3333,-2.58797 0,-1.42339 -0.5477,-2.92654 -1.2173,-3.34032 -0.6695,-0.41379 -1.6218,-3.14606 -2.116,-6.07171 -0.4943,-2.92565 -1.4466,-5.65792 -2.116,-6.07171 -0.6696,-0.41378 -1.2174,-1.92506 -1.2174,-3.35841 0,-1.43333 -0.53,-3.64792 -1.1777,-4.92131 -2.8165,-5.53652 -4.0255,-9.38 -4.8079,-15.28416 -0.4593,-3.46624 -1.4005,-6.65165 -2.0914,-7.07869 -0.691,-0.42704 -1.2563,-2.54103 -1.2563,-4.69775 0,-2.15672 -0.5376,-3.9213 -1.1945,-3.9213 -0.6571,0 -1.62,-4.8054 -2.1399,-10.67867 -0.6053,-6.83768 -1.6033,-11.04695 -2.7748,-11.70252 -1.2121,-0.67835 -2.1324,-4.96401 -2.7269,-12.69968 -0.4936,-6.42171 -1.4075,-11.99099 -2.0307,-12.37617 -0.6233,-0.38519 -1.1332,-3.91494 -1.1332,-7.84387 0,-4.52967 -0.6099,-7.3468 -1.6667,-7.69905 -1.3036,-0.4345 -1.6666,-15.02955 -1.6666,-66.999943 0,-51.97033 0.363,-66.565466 1.6666,-67.000046 1.0772,-0.359113 1.6667,-3.283449 1.6667,-8.268717 V 16.35157 l 17.6667,3.098289 c 244.3604,42.854679 471.0196,153.042841 659,320.366341 22.8308,20.32199 81.2886,78.82795 101.4337,101.51714 17.6613,19.89181 46.3915,54.13459 55.1252,65.70239 5.5171,7.30724 5.5807,7.51178 3.3787,10.87248 -1.2344,1.88382 -2.8566,3.42513 -3.6047,3.42513 -0.7483,0 -2.7507,1.5 -4.4497,3.33333 -1.6991,1.83334 -4.288,3.33334 -5.7534,3.33334 -1.4652,0 -3.1438,0.83748 -3.7302,1.86106 -0.5864,1.02359 -3.5651,3.1575 -6.6192,4.742 -3.0542,1.58452 -5.8854,3.74704 -6.2915,4.8056 -0.4063,1.05858 -1.8932,1.92467 -3.3044,1.92467 -1.4112,0 -2.9112,0.9 -3.3333,2 -0.4222,1.1 -1.4283,2 -2.2358,2 -0.8076,0 -3.9764,1.7178 -7.0418,3.81733 -3.0655,2.09954 -6.9236,4.23998 -8.5736,4.75652 -1.65,0.51655 -3,1.49875 -3,2.18267 0,0.68391 -0.8071,1.24348 -1.7934,1.24348 -0.9864,0 -2.8793,1.2 -4.2066,2.66667 -1.3274,1.46666 -2.9779,2.66666 -3.668,2.66666 -2.2642,0 -20.9987,9.34262 -20.9987,10.47172 0,0.60631 -3.45,1.89156 -7.6667,2.85612 -4.2166,0.96458 -8.2689,2.4731 -9.005,3.35227 -0.7362,0.87919 -2.8362,2.06848 -4.6667,2.64289 -1.8305,0.5744 -6.4399,2.46171 -10.2428,4.19402 -3.8031,1.7323 -7.7796,3.14965 -8.8368,3.14965 -1.0572,0 -2.5883,0.80259 -3.4024,1.78353 -0.814,0.98095 -5.7301,2.54306 -10.9247,3.47138 -5.1945,0.9283 -9.7357,2.44662 -10.0916,3.37405 -0.3558,0.92741 -5.2632,2.47053 -10.9052,3.42915 -5.642,0.95861 -10.8581,2.51778 -11.5914,3.46481 -0.7334,0.94703 -7.0334,2.45313 -14,3.34689 -6.9667,0.89376 -13.1163,2.35979 -13.6659,3.25784 -0.5785,0.94532 -5.7799,2.03106 -12.3532,2.57862 -6.2447,0.52017 -11.6804,1.47406 -12.0795,2.11974 -0.399,0.6457 -3.5701,1.17399 -7.0468,1.17399 -3.4768,0 -6.9153,0.59396 -7.6412,1.31992 -0.726,0.72596 -12.8178,1.71976 -26.8706,2.20845 -19.5258,0.679 -25.713,1.31098 -26.2383,2.68007 -1.0361,2.70017 -37.7521,2.47749 -41.3593,-0.25084 z M 282.74096,604.7243 c -2.5258,-1.86503 -5.35469,-3.39096 -6.28642,-3.39096 -0.93172,0 -2.32244,-1.17419 -3.0905,-2.60929 -0.77402,-1.44628 -3.44946,-2.99443 -6.00252,-3.47339 -2.53334,-0.47527 -6.27605,-2.30035 -8.31713,-4.05575 -2.04108,-1.75541 -4.48615,-3.19238 -5.43347,-3.19328 -0.94733,-8.9e-4 -3.00245,-1.19416 -4.56694,-2.6517 -1.56448,-1.45754 -4.79783,-3.01651 -7.18522,-3.46439 -2.38738,-0.44788 -4.65116,-1.62335 -5.0306,-2.61216 -1.2437,-3.24103 41.73743,-61.46305 73.69898,-99.83224 28.95834,-34.76391 46.70392,-54.09405 82.76193,-90.15207 49.68062,-49.68063 87.90199,-82.97444 141.23639,-123.02799 C 720.50458,126.59276 938.22285,38.69965 1170.6667,9.4501447 1215.0334,3.8672704 1269.3465,0.03436207 1304.3944,0.01289815 L 1325.4554,0 l -0.8921,13.666667 c -0.4907,7.516667 -1.4182,14.236667 -2.0611,14.933333 -0.6429,0.696667 -1.1822,7.296667 -1.1985,14.666667 -0.025,11.136254 -0.462,13.963122 -2.5889,16.733334 l -2.5593,3.333333 -29.4966,0.447103 c -23.898,0.36224 -29.6339,0.805114 -30.2204,2.333333 -0.5288,1.378222 -3.2447,1.886231 -10.0839,1.886231 -20.8345,0 -61.6404,3.002025 -62.9922,4.634239 -0.8659,1.045489 -9.327,2.235953 -23.2192,3.266902 -13.5732,1.00728 -22.4828,2.247974 -23.5085,3.273647 -0.9564,0.956497 -9.4088,2.369309 -20.0827,3.356821 -11.2574,1.041494 -18.9736,2.358296 -19.8249,3.383179 -0.7742,0.932092 -7.5775,2.367705 -15.305,3.229592 -7.6511,0.853381 -14.8511,2.366592 -16,3.362689 -1.1488,0.996098 -6.1805,2.210489 -11.1815,2.698646 -5.0011,0.488159 -10.1011,1.39292 -11.3334,2.010581 -4.1236,2.06688 -11.5066,3.931703 -19.1526,4.837673 -4.1683,0.49389 -7.8675,1.65056 -8.2205,2.57036 -0.357,0.9304 -4.2411,2.07958 -8.7546,2.59023 -4.462,0.50482 -8.11282,1.48807 -8.11282,2.18498 0,0.69692 -1.68,1.26713 -3.73333,1.26713 -2.05334,0 -4.36787,0.63453 -5.1434,1.41007 -0.77554,0.77553 -4.79554,1.75947 -8.93334,2.18653 -4.1378,0.42706 -7.52326,1.29253 -7.52326,1.92327 0,0.63074 -1.16459,1.14679 -2.58798,1.14679 -1.42338,0 -2.92406,0.54379 -3.33482,1.20843 -0.41076,0.66463 -3.74618,1.62093 -7.41203,2.12511 -3.66584,0.50419 -6.66517,1.4604 -6.66517,2.12492 0,0.66451 -1.47178,1.20821 -3.2706,1.20821 -3.67128,0 -10.06274,2.58042 -10.06274,4.06263 0,0.53236 -2.68601,1.37071 -5.96892,1.86302 -3.28291,0.4923 -6.31832,1.46042 -6.74536,2.15139 -0.42704,0.69096 -2.20561,1.2563 -3.95239,1.2563 -1.74677,0 -3.54677,0.6 -4,1.33333 -0.45322,0.73333 -2.25322,1.33333 -4,1.33333 -1.74677,0 -3.54677,0.6 -4,1.33334 -0.45322,0.73333 -2.17396,1.33333 -3.82385,1.33333 -1.64989,0 -4.16448,0.88092 -5.58797,1.9576 -1.4235,1.07667 -3.90276,1.97667 -5.50948,2 -1.60672,0.0233 -3.29214,0.6424 -3.74536,1.37573 -0.45323,0.73334 -1.93864,1.33334 -3.30091,1.33334 -1.36228,0 -2.67687,0.45 -2.92132,1 C 885.89977,147.55887 873.13277,152 870.1544,152 c -1.18492,0 -2.15439,0.6 -2.15439,1.33334 0,0.73333 -1.08532,1.33333 -2.41183,1.33333 -1.3265,0 -3.5765,0.88092 -5,1.9576 -1.42349,1.07667 -3.78817,1.99576 -5.25484,2.0424 -1.46666,0.0467 -3.83134,0.96573 -5.25484,2.0424 -1.42349,1.07668 -3.99232,1.9576 -5.7085,1.9576 -1.71619,0 -3.45164,0.86333 -3.85655,1.91852 -0.40492,1.05519 -2.63609,2.3298 -4.95816,2.83245 -2.32207,0.50266 -5.81457,2.03932 -7.76111,3.41482 -1.94653,1.37548 -4.4683,2.50088 -5.60393,2.50088 -2.83952,0 -8.85691,2.84996 -8.85691,4.19482 0,0.60506 -2.7511,1.79286 -6.11356,2.63952 -3.36245,0.84668 -6.42665,2.35532 -6.80932,3.35254 -0.38266,0.99721 -1.75829,1.81312 -3.05693,1.81312 -3.12693,0 -12.02019,3.75456 -12.02019,5.07469 0,0.57139 -2.7,1.76104 -6,2.64365 -3.3,0.88262 -6,2.15884 -6,2.83604 0,0.67722 -3,2.22775 -6.66666,3.44562 -3.66667,1.21786 -6.66667,2.74296 -6.66667,3.38909 0,0.64613 -2.38013,1.81569 -5.28919,2.59901 -2.90905,0.78334 -5.75905,2.1917 -6.33333,3.1297 -0.57428,0.938 -3.14415,2.54226 -5.71081,3.56502 -2.56667,1.02275 -5.26667,2.59428 -6,3.49227 -0.73334,0.89799 -3.88334,2.29908 -7,3.11353 -3.11667,0.81446 -5.66667,2.0437 -5.66667,2.73166 0,0.68794 -2.25,2.37964 -5,3.7593 -2.75,1.37967 -6.8,3.48998 -9,4.68956 -2.2,1.1996 -4.98003,2.18479 -6.17783,2.18931 -1.1978,0.004 -2.49162,1.20821 -2.87517,2.67488 -0.39475,1.50951 -1.81868,2.66667 -3.28145,2.66667 -1.42127,0 -4.32743,1.49926 -6.45816,3.3317 -2.13074,1.83244 -4.66408,3.33244 -5.62968,3.33334 -1.70956,0.001 -8.8936,4.91326 -14.21676,9.71989 -1.45267,1.31171 -4.10092,2.75129 -5.88501,3.19907 -2.90668,0.72953 -5.10805,2.14858 -9.95806,6.41921 -0.83484,0.73511 -3.76788,2.52155 -6.51788,3.96988 -2.75,1.44832 -5,3.09688 -5,3.66344 0,0.56657 -0.6882,1.03013 -1.52935,1.03013 -0.84113,0 -4.09212,2.1 -7.22439,4.66667 -3.13228,2.56667 -6.57989,4.66667 -7.66134,4.66667 -1.08146,0 -2.31164,0.9 -2.73376,2 -0.42211,1.1 -1.59331,2 -2.60267,2 -1.00936,0 -2.92117,1.2 -4.24849,2.66666 -1.32732,1.46667 -3.22031,2.66667 -4.20666,2.66667 -0.98633,0 -1.79334,0.55957 -1.79334,1.24348 0,0.68392 -1.35,1.66505 -3,2.18029 -1.65,0.51524 -4.65522,2.65567 -6.67827,4.75651 -2.02304,2.10085 -4.18005,3.81972 -4.79335,3.81972 -0.61329,0 -2.25808,1.26885 -3.65506,2.81968 -1.397,1.55083 -3.73999,3.3766 -5.20666,4.05725 -5.45682,2.53246 -9.21585,5.02212 -12.56069,8.31918 -6.77136,6.67461 -13.16089,11.47056 -15.282,11.47056 -1.18652,0 -2.15731,0.91485 -2.15731,2.033 0,1.11814 -1.62762,2.65182 -3.61696,3.40817 -3.18626,1.21141 -11.22626,7.87032 -21.73076,17.99789 -1.84125,1.77518 -4.09125,3.2276 -5,3.2276 -0.90876,0 -1.65228,0.61486 -1.65228,1.36634 0,0.75148 -1.5,1.93664 -3.33333,2.63366 -1.83333,0.69703 -3.33333,2.19703 -3.33333,3.33334 0,1.1363 -1.5,2.6363 -3.33334,3.33333 -1.83333,0.69703 -3.33333,1.88219 -3.33333,2.63367 0,0.75148 -0.76879,1.36633 -1.7084,1.36633 -0.93963,0 -5.27084,3.6 -9.62493,8 -4.3541,4.4 -8.41288,8 -9.01954,8 -0.60665,0 -8.55958,7.5 -17.6732,16.66667 -9.11361,9.16667 -17.33022,16.66667 -18.25914,16.66667 -1.96934,0 -27.71479,26.27833 -27.71479,28.28841 0,1.68575 -15.42725,17.04492 -17.12047,17.04492 -0.67934,0 -1.56064,1.24453 -1.95841,2.76561 -0.39777,1.5211 -1.91228,3.07656 -3.36556,3.45662 -1.45329,0.38004 -2.95329,1.88004 -3.33333,3.33333 -0.38006,1.45328 -1.93552,2.96779 -3.45662,3.36556 -1.52108,0.39777 -2.76561,1.72375 -2.76561,2.9466 0,1.22285 -3.3,5.48239 -7.33334,9.46561 -4.03333,3.98323 -7.33333,7.86842 -7.33333,8.63372 0,0.76532 -1.2,2.14091 -2.66667,3.05686 -1.46666,0.91594 -2.66666,2.46396 -2.66666,3.44004 0,0.97606 -1.5,2.45812 -3.33334,3.29345 -1.83333,0.83532 -3.33333,2.36743 -3.33333,3.40469 0,1.03727 -0.9,2.2313 -2,2.65342 -1.1,0.4221 -2,1.48629 -2,2.36486 0,0.87858 -1.43403,3.1474 -3.18672,5.04186 -12.36547,13.3655 -16.59009,18.4806 -17.37963,21.0429 -0.49686,1.61248 -2.0727,3.30292 -3.50185,3.75652 -1.42916,0.45359 -2.59847,1.92212 -2.59847,3.26342 0,1.34128 -2.1,4.2825 -4.66666,6.53608 -2.56667,2.25356 -4.66667,4.57184 -4.66667,5.15174 0,0.5799 -1.5,2.67204 -3.33333,4.6492 C 325.5,568.93261 324,571.53265 324,572.73331 c 0,1.20066 -1.18013,2.49163 -2.6225,2.86882 -1.44239,0.37718 -3.02767,1.96232 -3.52284,3.52252 -1.00679,3.17206 -8.281,12.96178 -10.85466,14.60828 -0.91666,0.58644 -1.66666,2.29261 -1.66666,3.79149 0,1.57764 -1.09139,3.01064 -2.59175,3.403 -1.42545,0.37276 -2.77545,1.96659 -3,3.54184 -0.33836,2.37376 -1.43544,2.93101 -6.40825,3.25504 -4.72588,0.30793 -6.9752,-0.32913 -10.59238,-3 z"
     id="path886"
     inkscape:connector-curvature="0" />
</svg>
