<?xml version="1.0" encoding="UTF-8" standalone="no"?>
<svg
   xmlns:dc="http://purl.org/dc/elements/1.1/"
   xmlns:cc="http://creativecommons.org/ns#"
   xmlns:rdf="http://www.w3.org/1999/02/22-rdf-syntax-ns#"
   xmlns:svg="http://www.w3.org/2000/svg"
   xmlns="http://www.w3.org/2000/svg"
   xmlns:sodipodi="http://sodipodi.sourceforge.net/DTD/sodipodi-0.dtd"
   xmlns:inkscape="http://www.inkscape.org/namespaces/inkscape"
   id="Layer_1"
   data-name="Layer 1"
   viewBox="0 0 1038.90491 1600"
   version="1.1"
   sodipodi:docname="ubuntu_keyring2.svg"
   inkscape:version="1.0.2 (e86c870879, 2021-01-15)">
  <metadata
     id="metadata141">
    <rdf:RDF>
      <cc:Work
         rdf:about="">
        <dc:format>image/svg+xml</dc:format>
        <dc:type
           rdf:resource="http://purl.org/dc/dcmitype/StillImage" />
        <dc:title></dc:title>
      </cc:Work>
    </rdf:RDF>
  </metadata>
  <sodipodi:namedview
     pagecolor="#ffffff"
     bordercolor="#666666"
     borderopacity="1"
     objecttolerance="10"
     gridtolerance="10"
     guidetolerance="10"
     inkscape:pageopacity="0"
     inkscape:pageshadow="2"
     inkscape:window-width="1918"
     inkscape:window-height="2114"
     id="namedview139"
     showgrid="false"
     inkscape:zoom="0.63"
     inkscape:cx="590.59722"
     inkscape:cy="801.0389"
     inkscape:window-x="1920"
     inkscape:window-y="46"
     inkscape:window-maximized="0"
     inkscape:current-layer="Layer_1" />
  <defs
     id="defs122">
    <style
       id="style120">.cls-1{fill:#e9500e;}.cls-2{fill:#fff;}</style>
  </defs>
  <path
     id="rect124"
     d="M 0 0 L 0 1600 L 1038.9043 1600 L 1038.9043 0 L 0 0 z M 680.60156 707.98047 A 109.02696 109.02696 0 0 1 680.64453 707.98047 A 109.02696 109.02696 0 0 1 789.67188 817.00781 A 109.02696 109.02696 0 0 1 680.64453 926.0332 A 109.02696 109.02696 0 0 1 571.61719 817.00781 A 109.02696 109.02696 0 0 1 680.60156 707.98047 z M 530.70117 719.02148 C 539.22476 719.0705 547.77873 719.43077 556.34766 720.10938 A 158.08773 158.08773 0 0 0 523.27148 808.5293 A 265.90648 265.90648 0 0 0 309.16406 923.03906 A 157.3464 157.3464 0 0 0 226.48242 899.49414 C 223.71254 899.49269 220.94278 899.56695 218.17578 899.71875 C 281.78307 787.48308 402.84729 718.28623 530.70117 719.02148 z M 825.67188 878.70117 A 356.70056 356.70056 0 0 1 807.79688 1297.2207 A 156.34662 156.34662 0 0 0 755.62695 1215.9941 A 267.293 267.293 0 0 0 764.36328 950.50586 A 157.14405 157.14405 0 0 0 825.67188 878.70117 z M 226.54492 947.04688 A 109.02696 109.02696 0 0 1 226.58789 947.04688 A 109.02696 109.02696 0 0 1 335.61523 1056.0742 A 109.02696 109.02696 0 0 1 226.58789 1165.1016 A 109.02696 109.02696 0 0 1 117.56055 1056.0742 A 109.02696 109.02696 0 0 1 226.54492 947.04688 z M 291.41016 1198.5684 A 265.525 265.525 0 0 0 472.48242 1336.666 C 481.27782 1338.5483 490.24683 1340.0045 499.22656 1341.002 A 156.00315 156.00315 0 0 0 531.14844 1432.1582 A 359.21054 359.21054 0 0 1 453.72852 1424.1895 A 354.9352 354.9352 0 0 1 198.19141 1210.0254 A 156.94811 156.94811 0 0 0 291.41016 1198.5684 z M 656.03906 1228.2402 A 109.02696 109.02696 0 0 1 656.08203 1228.2402 A 109.02696 109.02696 0 0 1 765.10938 1337.2676 A 109.02696 109.02696 0 0 1 656.08203 1446.2949 A 109.02696 109.02696 0 0 1 547.05469 1337.2676 A 109.02696 109.02696 0 0 1 656.03906 1228.2402 z " />
</svg>
